<?xml version="1.0" encoding="utf-8"?>
<!-- Generator: Adobe Illustrator 24.3.0, SVG Export Plug-In . SVG Version: 6.00 Build 0)  -->
<svg version="1.1" id="Layer_1" xmlns="http://www.w3.org/2000/svg" xmlns:xlink="http://www.w3.org/1999/xlink" x="0px" y="0px"
	 viewBox="0 0 504 288" style="enable-background:new 0 0 504 288;" xml:space="preserve">
<style type="text/css">
	.st0{clip-path:url(#SVGID_3_);}
	.st1{opacity:0.7;fill:url(#SVGID_4_);}
	.st2{opacity:0.7;fill:url(#SVGID_5_);}
	.st3{opacity:0.5;fill:url(#SVGID_6_);}
	.st4{opacity:0.9;fill:url(#SVGID_7_);}
	.st5{opacity:0.5;fill:url(#SVGID_8_);}
	.st6{opacity:0.5;fill:url(#SVGID_9_);}
	.st7{opacity:0.9;fill:url(#SVGID_10_);}
	.st8{fill:url(#SVGID_11_);}
	.st9{fill:url(#SVGID_12_);}
	.st10{fill:url(#SVGID_13_);}
	.st11{fill:url(#SVGID_14_);}
	.st12{opacity:0.7;fill:url(#SVGID_15_);}
	.st13{fill:url(#SVGID_16_);}
	.st14{opacity:0.7;fill:url(#SVGID_17_);}
	.st15{opacity:0.9;fill:url(#SVGID_18_);}
	.st16{opacity:0.5;fill:url(#SVGID_19_);}
	.st17{fill:url(#SVGID_20_);}
	.st18{opacity:0.7;fill:url(#SVGID_21_);}
	.st19{opacity:0.7;fill:url(#SVGID_22_);}
	.st20{opacity:0.5;fill:url(#SVGID_23_);}
	.st21{opacity:0.9;fill:url(#SVGID_24_);}
	.st22{opacity:0.5;fill:url(#SVGID_25_);}
	.st23{opacity:0.9;fill:url(#SVGID_26_);}
	.st24{fill:url(#SVGID_27_);}
	.st25{fill:url(#SVGID_28_);}
	.st26{fill:url(#SVGID_29_);}
	.st27{opacity:0.7;fill:url(#SVGID_30_);}
	.st28{opacity:0.7;fill:url(#SVGID_31_);}
	.st29{opacity:0.5;fill:url(#SVGID_32_);}
	.st30{opacity:0.9;fill:url(#SVGID_33_);}
	.st31{opacity:0.5;fill:url(#SVGID_34_);}
	.st32{opacity:0.5;fill:url(#SVGID_35_);}
	.st33{opacity:0.9;fill:url(#SVGID_36_);}
	.st34{fill:url(#SVGID_37_);}
	.st35{fill:url(#SVGID_38_);}
	.st36{fill:url(#SVGID_39_);}
	.st37{opacity:0.7;fill:url(#SVGID_40_);}
	.st38{opacity:0.7;fill:url(#SVGID_41_);}
	.st39{opacity:0.5;fill:url(#SVGID_42_);}
	.st40{opacity:0.9;fill:url(#SVGID_43_);}
	.st41{opacity:0.5;fill:url(#SVGID_44_);}
	.st42{opacity:0.5;fill:url(#SVGID_45_);}
	.st43{opacity:0.9;fill:url(#SVGID_46_);}
	.st44{fill:url(#SVGID_47_);}
	.st45{fill:url(#SVGID_48_);}
	.st46{fill:url(#SVGID_49_);}
</style>
<g>
	<g>
		<defs>
			<polygon id="SVGID_1_" points="0,0 504,0 504,288 0,288 			"/>
		</defs>
		<linearGradient id="SVGID_2_" gradientUnits="userSpaceOnUse" x1="252" y1="57.6994" x2="252" y2="286.3167">
			<stop  offset="0.3243" style="stop-color:#FFBF00"/>
			<stop  offset="0.4016" style="stop-color:#FFC004"/>
			<stop  offset="0.4856" style="stop-color:#FFC311"/>
			<stop  offset="0.5727" style="stop-color:#FFC927"/>
			<stop  offset="0.662" style="stop-color:#FFD046"/>
			<stop  offset="0.753" style="stop-color:#FFDA6D"/>
			<stop  offset="0.8454" style="stop-color:#FFE69D"/>
			<stop  offset="0.9371" style="stop-color:#FFF4D4"/>
			<stop  offset="1" style="stop-color:#FFFFFF"/>
		</linearGradient>
		<use xlink:href="#SVGID_1_"  style="display:none;overflow:visible;fill:url(#SVGID_2_);"/>
		<clipPath id="SVGID_3_">
			<use xlink:href="#SVGID_1_"  style="display:none;overflow:visible;"/>
		</clipPath>
		<g class="st0">
			<g>
				
					<linearGradient id="SVGID_4_" gradientUnits="userSpaceOnUse" x1="969.5169" y1="-86.5429" x2="969.5169" y2="-297.0623" gradientTransform="matrix(0.9925 0 0 1 -879.462 379.5752)">
					<stop  offset="0.2228" style="stop-color:#000000"/>
					<stop  offset="0.3478" style="stop-color:#0D0D0D"/>
					<stop  offset="0.5795" style="stop-color:#2F2F2F"/>
					<stop  offset="0.8902" style="stop-color:#676767"/>
					<stop  offset="0.9901" style="stop-color:#7A7A7A"/>
				</linearGradient>
				<path class="st1" d="M155.7,238.1c-1.1-1.5-2.7-2.4-4.6-2.4c-0.5,0-1,0.1-1.4,0.2c-1.1-1.2-2.6-2-4.2-2c-1.7,0-3.2,0.8-4.3,2.1
					c0,0-0.1,0-0.1,0c-0.8-2.5-3-4.3-5.5-4.3c-1.9,0-3.6,1-4.6,2.5c-1-0.8-1.9-1.6-2.9-2.3c0-0.2,0.1-0.5,0.1-0.7
					c0-4.5-3.4-8.2-7.5-8.2c-2.3,0-4.3,1.1-5.7,2.9c-1.9-0.5-3.7-0.9-5.6-1.2c-0.4-2.6-2.5-4.6-5-4.6c-1.6,0-2.9,0.8-3.9,2
					c-1.9-5.5-6.8-9.5-12.5-9.5c-3.5,0-6.7,1.5-9,3.9c-1-0.5-2.1-0.7-3.2-0.7c-0.4,0-0.7,0.1-1.1,0.1c-1.4-6.5-6.7-11.3-13-11.3
					c-1.3,0-2.5,0.2-3.6,0.6c-0.3-0.2-0.7-0.2-1.1-0.4c-3.2-4.4-9.1-8-16.1-9.3c-6.7-1.2-13-0.1-17.3,2.6C20,189.2,12,183,2.6,183
					c-1.1,0-2.2,0.1-3.3,0.3v79c0.7-0.1,1.3-0.3,1.9-0.4c2.8,11.5,61.5,11.1,66.5,0.5c7.1,1.7,11.4,0,14-2c1.2,0.7,2.6,1.2,4,1.2
					c2.4,0,4.6-1.2,6.1-3c3.4,0.7,6,0.4,8.1-0.3c2.4,3,5.9,4.9,9.9,4.9c5,0,9.3-3.1,11.6-7.6c1.3,1,2.9,1.5,4.7,1.5
					c1.8,0,3.4-0.6,4.7-1.6c1.1,1.6,2.8,2.7,4.7,2.7c2,0,3.8-1.1,4.9-2.8c0.9,0.7,2,1.1,3.2,1.1c1.8,0,3.4-0.9,4.5-2.4
					c0.4-0.1,0.7-0.1,1.1-0.2c0.5,0.2,1.1,0.3,1.7,0.3c1.4,0,2.6-0.5,3.6-1.4c7-1.7,11.4-4.4,11.4-7.5
					C166.2,242.4,162.1,239.9,155.7,238.1z"/>
				
					<linearGradient id="SVGID_5_" gradientUnits="userSpaceOnUse" x1="641.5416" y1="297.4552" x2="641.5416" y2="121.9261" gradientTransform="matrix(0.9925 0 0 1 -325.1802 0)">
					<stop  offset="0.2228" style="stop-color:#000000"/>
					<stop  offset="0.3478" style="stop-color:#0D0D0D"/>
					<stop  offset="0.5795" style="stop-color:#2F2F2F"/>
					<stop  offset="0.8902" style="stop-color:#676767"/>
					<stop  offset="0.9901" style="stop-color:#7A7A7A"/>
				</linearGradient>
				<path class="st2" d="M534.8,151.7c-5.4-8.5-14.4-14.1-24.6-14.1c-8.6,0-16.4,4-21.9,10.4c-4-10-13.1-17-23.7-17
					c-9.1,0-17,5.1-21.6,12.9c-3.1-5.4-8.6-9-14.9-9c-1.7,0-3.4,0.3-5,0.8c-4-8.1-11.8-13.7-20.8-13.7c-8.7,0-16.4,5.2-20.4,13
					c-0.3,0-0.6-0.1-1-0.1c-6.4,0-12.1,3.8-15.1,9.5c-5.4-5.7-12.7-9.2-20.8-9.2c-8.9,0-16.9,4.2-22.4,10.9
					c-7.8-6.1-17.3-9.7-27.6-9.7c-14.2,0-26.8,6.8-35.5,17.6c-3.4-1.7-7.2-2.6-11.2-2.6c-15.2,0-27.4,13.4-27.4,30
					c0,0.6,0.1,1.2,0.1,1.9c-1.4-0.4-2.9-0.7-4.5-0.7c-6.8,0-12.6,4.2-15.6,10.3c-3.6-2-7.6-3.1-11.9-3.1
					c-11.3,0-20.9,7.8-24.7,18.8c-0.7-0.1-1.5-0.2-2.2-0.2c-7.9,0-14.5,6.6-15.3,15c-0.2,0-0.4,0-0.6,0c-4.9,0-8.9,3.6-10.1,8.5
					c-1.2-0.1-2.4-0.1-3.6-0.1c-9.9,0-18.2,2.8-20.6,6.7c-0.8,0-1.6-0.1-2.4-0.1c-11.8,0-21.4,4-21.4,9c0,5,9.6,9,21.4,9
					c1.5,0,3-0.1,4.5-0.2c3.5,3,10.8,5,19.1,5c0.8,0,1.6,0,2.4-0.1c1,4.8,4.9,8.5,9.6,8.5c1.1,0,2.1-0.2,3.1-0.5
					c3.4,5.1,8.9,8.3,15,8.3c3.1,0,6-0.8,8.6-2.3c2.8,2.9,6.5,4.7,10.6,4.7c4.2,0,8-1.8,10.7-4.8c4.8,6.6,12.2,10.8,20.5,10.8
					c6.8,0,13-2.9,17.7-7.5c2.2,5.2,6.9,8.7,12.5,8.7c4.9,0,9.3-2.9,11.7-7.2c4,2.6,8.6,4.1,13.6,4.1c6.1,0,11.7-2.3,16.2-6.1
					c2.5,3,6.1,4.9,10.1,4.9c3.9,0,7.5-1.8,10-4.8c3.8,6.5,10.4,10.7,18,10.7c6,0,11.3-2.7,15.2-7c7.1,6.1,17.6,10,29.2,10
					c14.3,0,26.8-5.8,33.6-14.5c4.1,7.5,11.6,12.4,20.2,12.4c2.8,0,5.6-0.6,8.1-1.6c3.1,5.6,8.8,9.4,15.2,9.4c6.4,0,12-3.7,15.2-9.3
					c7.1,5.6,15.8,9,25.2,9c14.7,0,27.7-8.1,35.4-20.5c3.7,4.2,8.5,7.2,13.9,8.3V151.7z"/>
				
					<linearGradient id="SVGID_6_" gradientUnits="userSpaceOnUse" x1="1018.1709" y1="-171.2682" x2="1018.1709" y2="-318.7876" gradientTransform="matrix(0.9925 0 0 1 -879.462 379.5752)">
					<stop  offset="0.2228" style="stop-color:#000000"/>
					<stop  offset="0.3478" style="stop-color:#0D0D0D"/>
					<stop  offset="0.5795" style="stop-color:#2F2F2F"/>
					<stop  offset="0.8902" style="stop-color:#676767"/>
					<stop  offset="0.9901" style="stop-color:#7A7A7A"/>
				</linearGradient>
				<path class="st3" d="M257.7,163.8c-5-0.5-10.4-0.8-15.8-0.9c-0.2-2.8-1.8-5.5-4.5-7c-4.2-2.3-9.4-0.7-11.7,3.5
					c-1-14.6-41.2-23-48.2-9.4c-0.7-5.3-3.8-10.1-8.7-12.8c-8.3-4.5-18.6-1.4-23,6.9c-0.1,0.2-0.2,0.5-0.3,0.7
					c-2.5-0.6-5.1-1-7.7-1.2c0.8-4.7-1.3-9.7-5.8-12.1c-5.3-2.9-11.8-1.1-15,4c-1.8-1.5-3.7-2.8-5.7-3.9c-5.1-2.8-10.7-4.2-16.1-4.3
					c-3-8-8.7-15-16.7-19.4c-14.1-7.7-31-4.9-42.1,5.6c0-7-3.7-13.7-10.2-17.2c-6.3-3.4-13.6-2.9-19.3,0.5c-1.5-9.4-7.1-18-16-22.8
					c-1.8-1-3.6-1.7-5.4-2.3v131.4c0.4,0.2,0.7,0.5,1.1,0.7c17.3,9.4,38.7,3.6,49.1-12.9c2.2,3.5,5.2,6.4,9,8.5
					c10,5.5,22.2,3.1,29.6-4.9c0.9,0.6,1.7,1.1,2.7,1.6c14,7.6,30.8,5,41.9-5.4c14,4.4,30.2,2.2,40.7-5c7.1,1.2,14.5,1.3,21.3,0.3
					c1.3,1.6,2.9,2.9,4.8,3.9c8.3,4.5,18.6,1.4,23.1-6.9c0-0.1,0.1-0.1,0.1-0.2c9.9-0.5,19-2.5,24.8-5.6c15.2,0.6,31.2-0.8,38.9-3.6
					C281.9,170,275.4,165.7,257.7,163.8z"/>
				
					<linearGradient id="SVGID_7_" gradientUnits="userSpaceOnUse" x1="1190.9456" y1="-86.9696" x2="1190.9456" y2="-209.0381" gradientTransform="matrix(0.9925 0 0 1 -879.462 379.5752)">
					<stop  offset="0.2228" style="stop-color:#000000"/>
					<stop  offset="0.3478" style="stop-color:#0D0D0D"/>
					<stop  offset="0.5795" style="stop-color:#2F2F2F"/>
					<stop  offset="0.8902" style="stop-color:#676767"/>
					<stop  offset="0.9901" style="stop-color:#7A7A7A"/>
				</linearGradient>
				<path class="st4" d="M534.8,243c-10.4-5.4-27.8-6.4-31.8,1.5c-0.6-4.4-3.1-8.4-7.2-10.6c-6.8-3.7-15.4-1.2-19.1,5.7
					c-0.1,0.2-0.1,0.4-0.2,0.6c-2.1-0.5-4.2-0.8-6.3-1c0.7-3.9-1.1-8-4.8-10c-4.4-2.4-9.8-0.9-12.4,3.3c-1.5-1.2-3-2.3-4.8-3.2
					c-4.3-2.3-8.8-3.5-13.4-3.6c-2.5-6.6-7.2-12.4-13.8-16.1c-11.7-6.4-25.7-4.1-34.8,4.6c0-5.8-3-11.3-8.4-14.3
					c-5.2-2.8-11.3-2.4-16,0.4c-1.2-7.8-5.9-14.9-13.3-18.9c-9.7-5.2-21.1-3.7-29,3.1c-2.2-4.5-5.7-8.4-10.5-10.9
					c-12.1-6.6-27.2-2-33.7,10.2c-0.3,0.5-0.5,1-0.7,1.5c-2.2-2.1-4.6-3.9-7.3-5.4c-16.6-9-37.3-2.8-46.2,13.9
					c-1.6,3-2.7,6.2-3.4,9.4c-9.2-0.1-18.1,4.7-22.7,13.4c-1.3,2.4-2.2,5-2.6,7.6c-5.4-1.2-11,0.5-14.9,4.3c-1-0.9-2.2-1.6-3.4-2.3
					c-10.1-5.5-22.6-2-28.5,7.8c-0.3-0.2-0.6-0.5-1-0.7c-3.8-2.1-8.6-0.6-10.6,3.2c-0.9,1.6-1.1,3.5-0.8,5.2c-1,0.2-2,0.6-3,1
					c-0.7-1.5-1.8-2.8-3.4-3.7c-3.8-2.1-8.6-0.6-10.6,3.2c-0.8,1.5-1.1,3.2-0.8,4.8c-1.3,0.3-2.6,0.7-3.8,1.3
					c-3.3-0.7-6.8,0.8-8.5,3.9c-0.2,0.3-0.3,0.7-0.4,1c-1-0.2-2-0.4-3.1-0.4c-3.8,0-7.1,1.5-8.9,3.6c-0.3,0-0.6,0-0.8,0
					c-10.7,0-19.4,1.7-19.4,3.7c0,2.1,8.7,3.7,19.4,3.7c0.3,0,0.6,0,0.8,0c1.8,2.2,5.1,3.6,8.9,3.6c2.2,0,4.1-0.5,5.8-1.3
					c1.3,2.4,3.5,4.6,6.3,6c4.2,2.1,9,2.1,13.1,0.5c1.1,1.1,2.4,2,3.8,2.8c5.7,3.1,12.2,2.8,17.5-0.1c1.3,1.4,2.9,2.7,4.7,3.7
					c8.3,4.5,18.5,2,23.8-5.6c1.4,4.2,4.3,7.8,8.4,10.1c8.6,4.7,19.2,1.5,24-6.9c2.9,4,6.7,7.5,11.3,10c14.6,8,32.4,4.1,42.5-8.4
					c2,3.4,4.8,6.3,8.5,8.3c10.6,5.8,23.8,1.8,29.6-8.9c0.1-0.2,0.1-0.3,0.2-0.5c1.4,4.4,4.4,8.2,8.8,10.6c9,4.9,20.2,1.5,25-7.5
					c0.3-0.6,0.6-1.2,0.9-1.9c2.7,4.2,6.5,7.7,11.1,10.2c14.3,7.8,32,2.9,40.6-10.7c1.8,2.9,4.3,5.3,7.5,7
					c8.3,4.5,18.3,2.6,24.5-4.1c0.7,0.5,1.4,0.9,2.2,1.3c11.6,6.3,25.5,4.1,34.7-4.4c11.6,3.6,25,1.8,33.7-4.1c5.8,1,12,1,17.7,0.2
					c1.1,1.3,2.4,2.4,4,3.3c6.8,3.7,15.4,1.2,19.1-5.7c0-0.1,0-0.1,0.1-0.2c2.1-0.1,4.1-0.3,6.1-0.6V243z"/>
				
					<linearGradient id="SVGID_8_" gradientUnits="userSpaceOnUse" x1="933.2593" y1="-193.9411" x2="933.2593" y2="-351.3542" gradientTransform="matrix(0.9925 0 0 1 -879.462 379.5752)">
					<stop  offset="0.2228" style="stop-color:#000000"/>
					<stop  offset="0.3478" style="stop-color:#0D0D0D"/>
					<stop  offset="0.5795" style="stop-color:#2F2F2F"/>
					<stop  offset="0.8902" style="stop-color:#676767"/>
					<stop  offset="0.9901" style="stop-color:#7A7A7A"/>
				</linearGradient>
				<path class="st5" d="M80.7,149.4c-3.5-0.6-6.8-0.7-9.4-0.6c-0.4-2.2-3.1-4.1-6.6-4.3c-3.5-0.3-6.6,1.2-7.2,3.4
					c-1.4-1.5-3.4-2.5-5.7-2.5c-2,0-3.9,0.8-5.3,2.1c-1.6-2.3-4.2-3.9-7.2-4.1c-0.9-2.8-3.5-4.8-6.6-4.8c-1.1,0-2.1,0.3-3,0.7
					c-2.3-4-6.5-6.7-11.4-6.7c-3.3,0-6.3,1.2-8.6,3.3c-2.9-2.2-6.4-3.6-10.3-3.8v37.5c5-0.3,9.5-2.5,12.8-6c2.2,1.7,4.9,2.7,7.9,2.7
					c4.8,0,8.9-2.6,11.2-6.5c1.8,2,4.4,3.3,7.3,3.3c3.3,0,6.2-1.7,8-4.2c1.4,1.3,3.2,2.1,5.3,2.1c2.3,0,4.4-1.1,5.8-2.7
					c1.1,1,2.5,1.6,4.1,1.6c1.9,0,3.6-0.9,4.8-2.3c1.6,0.9,4.4,1.5,7.5,1.3c3.5-0.1,6.5-1,7.9-2.3c6.7,0.8,12,0.1,12.2-1.6
					C94.5,153.2,88.5,150.6,80.7,149.4z"/>
				
					<linearGradient id="SVGID_9_" gradientUnits="userSpaceOnUse" x1="1141.4373" y1="-126.2412" x2="1141.4373" y2="-279.949" gradientTransform="matrix(0.9925 0 0 1 -879.462 379.5752)">
					<stop  offset="0.2228" style="stop-color:#000000"/>
					<stop  offset="0.3478" style="stop-color:#0D0D0D"/>
					<stop  offset="0.5795" style="stop-color:#2F2F2F"/>
					<stop  offset="0.8902" style="stop-color:#676767"/>
					<stop  offset="0.9901" style="stop-color:#7A7A7A"/>
				</linearGradient>
				<path class="st6" d="M494.3,218c-3.5-0.5-6.7-0.7-9.2-0.6c-0.4-2.2-3.1-4-6.5-4.2c-3.4-0.3-6.4,1.2-7,3.3
					c-1.4-1.5-3.3-2.4-5.5-2.4c-2,0-3.8,0.8-5.2,2.1c-1.6-2.3-4.1-3.8-7-4c-0.9-2.7-3.5-4.7-6.5-4.7c-1,0-2,0.3-2.9,0.7
					c-2.2-3.9-6.4-6.6-11.2-6.6c-3.2,0-6.2,1.2-8.4,3.2c-3.1-2.3-6.8-3.7-11-3.7c-2.6,0-5.1,0.6-7.4,1.6
					c-0.8-6.4-6.2-11.3-12.7-11.3c-0.9,0-1.8,0.1-2.7,0.3c0-0.1,0-0.2,0-0.3c0-7.1-5.7-12.9-12.8-12.9c-1,0-1.9,0.1-2.8,0.3
					c-3.5-13-15.3-22.6-29.3-22.6c-6.6,0-12.7,2.1-17.7,5.8c-1.2-11.3-10.6-20-22.1-20c-6.5,0-12.3,2.8-16.4,7.3
					c-1.8-20.5-18.9-36.5-39.6-36.5c-9.6,0-18.3,3.4-25.2,9.1c-9.4-13.3-24.9-22-42.3-22c-25.1,0-46,17.9-50.9,41.7
					c-3.6-1-7.3-1.6-11.2-1.6c-20.8,0-37.8,15.7-40.2,36c-2.4-0.8-5-1.3-7.7-1.3c-8.8,0-16.4,4.9-20.5,12c-2.5-0.7-5.1-1.2-7.8-1.2
					c-9.7,0-18.2,5-23.1,12.6c-1.9-1.3-4.1-2-6.6-2c-5.4,0-9.9,3.6-11.3,8.6c-1.1-0.5-2.3-0.7-3.5-0.7c-0.2,0-0.4,0-0.6,0.1V228
					c0.5-0.4,1-0.8,1.5-1.3c2.2,2.8,5.5,4.6,9.3,4.6c4.1,0,7.7-2.1,9.8-5.3c4.6,9,13.9,15.2,24.6,15.2c8.7,0,16.4-4,21.5-10.3
					c3.7,8.8,12.3,15,22.4,15c10.9,0,20.1-7.2,23.2-17.2c3.5,9.2,12.3,15.8,22.7,15.8c9.3,0,17.3-5.2,21.4-12.9
					c7.1,11.8,19.9,19.7,34.6,19.7c11.3,0,21.5-4.7,28.9-12.2c4.5,7.3,12.6,12.2,21.8,12.2c7.7,0,14.5-3.4,19.2-8.8
					c7.7,6.7,17.7,10.8,28.7,10.8c13.2,0,25.1-5.9,33.2-15.3c5,4,11.3,6.4,18.1,6.4c9.6,0,18.1-4.7,23.4-12c4,4.1,9.6,6.6,15.7,6.6
					c7.9,0,14.9-4.2,18.8-10.5c3.2,5.5,9,9.2,15.7,9.2c5.3,0,10-2.3,13.4-5.9c2.1,1.7,4.8,2.7,7.7,2.7c4.7,0,8.7-2.5,10.9-6.3
					c1.8,2,4.3,3.3,7.1,3.3c3.2,0,6.1-1.6,7.8-4.1c1.4,1.3,3.2,2.1,5.2,2.1c2.3,0,4.3-1,5.7-2.6c1.1,0.9,2.5,1.5,4,1.5
					c1.9,0,3.6-0.9,4.7-2.3c1.6,0.9,4.3,1.4,7.4,1.3c3.4-0.1,6.3-1,7.7-2.2c6.5,0.7,11.7,0.1,11.9-1.6
					C507.7,221.6,501.8,219.1,494.3,218z"/>
				
					<linearGradient id="SVGID_10_" gradientUnits="userSpaceOnUse" x1="1132.4792" y1="-82.921" x2="1132.4792" y2="-266.6008" gradientTransform="matrix(0.9925 0 0 1 -879.462 379.5752)">
					<stop  offset="0.2228" style="stop-color:#000000"/>
					<stop  offset="0.3478" style="stop-color:#0D0D0D"/>
					<stop  offset="0.5795" style="stop-color:#2F2F2F"/>
					<stop  offset="0.8902" style="stop-color:#676767"/>
					<stop  offset="0.9901" style="stop-color:#7A7A7A"/>
				</linearGradient>
				<path class="st7" d="M449.9,248.2c-0.7-5.4-5.3-9.6-10.9-9.6c-2.7,0-5.3,1-7.2,2.7c-2-2.8-5.3-4.6-8.9-4.6c-2,0-3.8,0.5-5.4,1.4
					c-1.1-5-5.5-8.8-10.8-8.8c-3.7,0-7,1.8-9,4.7c-2.7-2.7-6.4-4.4-10.5-4.4c-2,0-3.9,0.4-5.7,1.1c-0.4-5.7-5.2-10.3-11-10.3
					c-4.4,0-8.1,2.6-9.9,6.3c-2.5-2.1-5.8-3.3-9.3-3.3c-2.6,0-5,0.7-7.2,1.9c-3.7-2.8-8.3-4.4-13.3-4.4c-3.1,0-6.1,0.6-8.8,1.8
					c-2.3-10-11.2-17.5-21.9-17.5c-3.8,0-7.4,1-10.5,2.6c-2.8-4.4-7.7-7.3-13.3-7.3c-6.9,0-12.7,4.4-14.9,10.6
					c-1.3-10.5-10.2-18.6-20.9-18.6c-3.5,0-6.9,0.9-9.8,2.4c-4.4-8.5-12.9-14.6-22.9-15.5c0.2-1,0.3-1.9,0.3-3
					c0-7.4-6-13.4-13.3-13.4c-1.7,0-3.2,0.3-4.7,0.9c-3-11.6-13.5-20.2-26-20.2c-3.7,0-7.3,0.8-10.5,2.2
					c-0.4-18.2-15.1-32.9-33.3-32.9c-17.5,0-31.9,13.7-33.2,31c-4.8-4.5-11.2-7.2-18.3-7.2C54.6,136.7,43,147.9,42,162
					c-2-0.8-4.2-1.2-6.5-1.2c-8.6,0-15.8,6-17.7,14.1c-5.3-3.5-11.7-5.5-18.5-5.6v106.4c4,1.9,8.4,3,13.2,3
					c11.1,0,20.8-5.8,26.3-14.5c9.2,14,24.9,23.3,42.8,23.3c10.6,0,20.4-3.2,28.5-8.7c4.1,5,10.4,8.2,17.3,8.2
					c6.4,0,12.1-2.7,16.2-7c4.1,6.7,11.4,11.1,19.7,11.1c7.4,0,14-3.5,18.2-8.9c4.3,8.7,13.2,14.6,23.5,14.6
					c11,0,20.4-6.8,24.3-16.4c4.8,5.3,11.7,8.6,19.4,8.6c5.4,0,10.4-1.6,14.6-4.4c3,1.5,6.4,2.4,10,2.4c10.3,0,18.9-6.9,21.6-16.4
					c4.1,5,10.3,8.1,17.3,8.1c3.6,0,6.9-0.9,9.9-2.3c1.9,1.7,4.4,2.7,7.1,2.7c4.6,0,8.4-2.9,10-6.9c4.8,0.9,10,1.3,15.5,1.3
					c7,0,13.6-0.8,19.4-2.2c12.5,14,30.7,5.3,33.3-2.9c8.9-0.7,16.8-2.4,22.5-4.7c1.6,1.8,4,3,6.6,3c3.9,0,7.3-2.6,8.4-6.2
					c0.5,0,1,0,1.4,0c23.8,0,43-2.8,43-6.2C489.7,251.1,472.1,248.4,449.9,248.2z"/>
				
					<linearGradient id="SVGID_11_" gradientUnits="userSpaceOnUse" x1="971.0286" y1="-51.0866" x2="971.0286" y2="-198.6052" gradientTransform="matrix(0.9925 0 0 1 -879.462 379.5752)">
					<stop  offset="0.2228" style="stop-color:#000000"/>
					<stop  offset="0.3478" style="stop-color:#0D0D0D"/>
					<stop  offset="0.5795" style="stop-color:#2F2F2F"/>
					<stop  offset="0.8902" style="stop-color:#676767"/>
					<stop  offset="0.9901" style="stop-color:#7A7A7A"/>
				</linearGradient>
				<path class="st8" d="M50.8,306.6c0.4-0.2,0.8-0.5,1.1-0.7c1.8,0.3,3.6,0.5,5.4,0.7h12.3c1.2-0.1,2.5-0.2,3.7-0.4
					c0.1,0.1,0.3,0.3,0.4,0.4h25.1c0.9-1,1.7-2.1,2.4-3.4c0-0.1,0.1-0.1,0.1-0.2c9.9-0.5,19-2.5,24.8-5.6
					c15.2,0.6,31.2-0.8,38.9-3.6c9.5-3.5,2.9-7.9-14.7-9.8c-5-0.5-10.4-0.8-15.8-0.9c-0.2-2.8-1.8-5.5-4.5-7
					c-4.2-2.3-9.4-0.7-11.7,3.5c-1-14.6-41.2-23-48.2-9.4c-0.7-5.3-3.8-10.1-8.7-12.8c-8.3-4.5-18.6-1.4-23,6.9
					c-0.1,0.2-0.2,0.5-0.3,0.7c-2.5-0.6-5.1-1-7.7-1.2c0.8-4.7-1.3-9.7-5.8-12.1c-5.3-2.9-11.8-1.1-15,4c-1.8-1.5-3.7-2.8-5.7-3.9
					c-1.4-0.8-2.9-1.4-4.4-2v56.7H50.8z"/>
				
					<linearGradient id="SVGID_12_" gradientUnits="userSpaceOnUse" x1="1253.6057" y1="-14.5198" x2="1253.6057" y2="-186.8314" gradientTransform="matrix(0.9925 0 0 1 -879.462 379.5752)">
					<stop  offset="0.2228" style="stop-color:#000000"/>
					<stop  offset="0.3478" style="stop-color:#0D0D0D"/>
					<stop  offset="0.5795" style="stop-color:#2F2F2F"/>
					<stop  offset="0.8902" style="stop-color:#676767"/>
					<stop  offset="0.9901" style="stop-color:#7A7A7A"/>
				</linearGradient>
				<path class="st9" d="M367.9,306.6c-1-0.2-2-0.2-3.1-0.2c-1.1,0-2.1,0.1-3.1,0.2H367.9z"/>
				
					<linearGradient id="SVGID_13_" gradientUnits="userSpaceOnUse" x1="1065.2336" y1="-14.4983" x2="1065.2336" y2="-186.8731" gradientTransform="matrix(0.9925 0 0 1 -879.462 379.5752)">
					<stop  offset="0.2228" style="stop-color:#000000"/>
					<stop  offset="0.3478" style="stop-color:#0D0D0D"/>
					<stop  offset="0.5795" style="stop-color:#2F2F2F"/>
					<stop  offset="0.8902" style="stop-color:#676767"/>
					<stop  offset="0.9901" style="stop-color:#7A7A7A"/>
				</linearGradient>
				<path class="st10" d="M356.2,306.6c-1.5-6.4-7.2-11.1-14-11.1c-1,0-2.1,0.1-3.1,0.3c0-0.1,0-0.2,0-0.3c0-8-6.4-14.5-14.4-14.5
					c-1.1,0-2.1,0.1-3.1,0.3c-3.9-14.6-17.1-25.3-32.8-25.3c-7.4,0-14.2,2.4-19.8,6.4c-1.3-12.6-11.9-22.5-24.8-22.5
					c-7.3,0-13.8,3.2-18.4,8.2c-2-23-21.1-40.9-44.5-40.9c-10.7,0-20.6,3.8-28.2,10.2c-10.6-14.9-27.9-24.6-47.4-24.6
					c-28.1,0-51.6,20.1-57.1,46.8c-4-1.2-8.2-1.8-12.6-1.8c-15.1,0-28.4,7.5-36.7,18.9v50H356.2z"/>
				
					<linearGradient id="SVGID_14_" gradientUnits="userSpaceOnUse" x1="1279.4202" y1="-32.6133" x2="1279.4202" y2="-179.8586" gradientTransform="matrix(0.9925 0 0 1 -879.462 379.5752)">
					<stop  offset="0.2228" style="stop-color:#000000"/>
					<stop  offset="0.3478" style="stop-color:#0D0D0D"/>
					<stop  offset="0.5795" style="stop-color:#2F2F2F"/>
					<stop  offset="0.8902" style="stop-color:#676767"/>
					<stop  offset="0.9901" style="stop-color:#7A7A7A"/>
				</linearGradient>
				<path class="st11" d="M534.8,306.6V204.8c-0.8-0.5-1.6-1-2.4-1.5c-14.6-7.9-32.8-2.5-40.7,12.3c-0.3,0.6-0.6,1.2-0.9,1.9
					c-2.6-2.5-5.5-4.7-8.9-6.5c-20-10.9-45-3.4-55.8,16.8c-2,3.7-3.3,7.5-4.1,11.4c-11.1-0.2-21.8,5.7-27.4,16.2
					c-1.6,3-2.6,6.1-3.2,9.2c-6.5-1.4-13.2,0.6-18,5.2c-1.3-1-2.6-2-4.1-2.8c-12.2-6.6-27.3-2.4-34.4,9.4c-0.4-0.3-0.8-0.6-1.2-0.8
					c-4.6-2.5-10.3-0.8-12.8,3.9c-1.1,2-1.3,4.2-0.9,6.2c-1.2,0.3-2.4,0.7-3.6,1.2c-0.8-1.8-2.2-3.4-4.1-4.4
					c-4.6-2.5-10.3-0.8-12.8,3.9c-1,1.9-1.3,3.9-1,5.8c-1.6,0.4-3.1,0.9-4.5,1.6c-4-0.8-8.2,1-10.2,4.8c-0.2,0.4-0.4,0.8-0.5,1.2
					c-1.2-0.3-2.4-0.4-3.7-0.4c-4.6,0-8.6,1.8-10.7,4.4c-0.3,0-0.7,0-1,0c-10.1,0-18.7,1.2-22,3H534.8z"/>
			</g>
			<g>
				
					<linearGradient id="SVGID_15_" gradientUnits="userSpaceOnUse" x1="-383.6293" y1="297.4551" x2="-383.6293" y2="121.9261" gradientTransform="matrix(-0.9925 0 0 1 130.1891 0)">
					<stop  offset="0.2228" style="stop-color:#000000"/>
					<stop  offset="0.3478" style="stop-color:#0D0D0D"/>
					<stop  offset="0.5795" style="stop-color:#2F2F2F"/>
					<stop  offset="0.8902" style="stop-color:#676767"/>
					<stop  offset="0.9901" style="stop-color:#7A7A7A"/>
				</linearGradient>
				<path class="st12" d="M534.8,216.5c-0.9-0.2-1.8-0.3-2.7-0.3c-6.8,0-12.3,6-12.3,13.5c0,0.1,0,0.2,0,0.3
					c-18.3,0.3-32.8,3.6-32.8,7.8c0,3.7,11.5,6.7,26.9,7.6c1,6.4,6,11.3,12.2,11.3c2.1,0,4.1-0.6,5.8-1.6c0.8,1.2,1.8,2.3,2.9,3.2
					V216.5z"/>
				
					<linearGradient id="SVGID_16_" gradientUnits="userSpaceOnUse" x1="268.087" y1="-32.6134" x2="268.087" y2="-179.8581" gradientTransform="matrix(-0.9925 0 0 1 684.471 379.5752)">
					<stop  offset="0.2228" style="stop-color:#000000"/>
					<stop  offset="0.3478" style="stop-color:#0D0D0D"/>
					<stop  offset="0.5795" style="stop-color:#2F2F2F"/>
					<stop  offset="0.8902" style="stop-color:#676767"/>
					<stop  offset="0.9901" style="stop-color:#7A7A7A"/>
				</linearGradient>
				<path class="st13" d="M534.8,306.6v-58.4c-10.7-7-24.8-8-36.8-1.5c-8,4.4-13.7,11.4-16.7,19.4c-5.5,0.2-11,1.5-16.1,4.3
					c-2.1,1.1-4,2.4-5.7,3.9c-3.2-5-9.7-6.9-15-4c-4.4,2.4-6.6,7.4-5.8,12.1c-2.6,0.2-5.1,0.6-7.6,1.2c-0.1-0.2-0.2-0.5-0.3-0.7
					c-4.5-8.3-14.8-11.4-23-6.9c-5,2.7-8,7.6-8.7,12.8c-6.9-13.7-47.1-5.2-48.1,9.3c-2.3-4.2-7.5-5.8-11.7-3.5
					c-2.7,1.5-4.3,4.1-4.5,7c-5.3,0-10.7,0.3-15.7,0.8c-8.5,0.9-14.4,2.4-17.2,4.1H534.8z"/>
			</g>
		</g>
		<g class="st0">
			<g>
				
					<linearGradient id="SVGID_17_" gradientUnits="userSpaceOnUse" x1="380.0794" y1="346.8082" x2="380.0794" y2="171.2789" gradientTransform="matrix(0.9925 0 0 1 -325.1802 0)">
					<stop  offset="0.2228" style="stop-color:#000000"/>
					<stop  offset="0.3478" style="stop-color:#0D0D0D"/>
					<stop  offset="0.5795" style="stop-color:#2F2F2F"/>
					<stop  offset="0.8902" style="stop-color:#676767"/>
					<stop  offset="0.9901" style="stop-color:#7A7A7A"/>
				</linearGradient>
				<path class="st14" d="M100.4,306.6c0.6-0.7,1.2-1.4,1.7-2.2c1.7,1,3.7,1.6,5.8,1.6c6.1,0,11.2-4.9,12.2-11.3
					c15.4-0.8,26.9-3.9,26.9-7.6c0-4.1-14.5-7.5-32.8-7.8c0-0.1,0-0.2,0-0.3c0-7.5-5.5-13.5-12.3-13.5c-2.8,0-5.3,1-7.4,2.7
					c0-0.1-0.1-0.1-0.1-0.2c-2.8-15-14.8-26.2-29.3-26.2c-2.5,0-4.9,0.4-7.2,1c-2.9-6.9-9.3-11.8-16.7-11.8
					c-5.4,0-10.3,2.6-13.7,6.7c-3.8-5.9-10-9.7-17.1-9.7c-1,0-2,0.1-3,0.3c0.7-2.8,1.1-5.7,1.1-8.7c0-18.1-13.4-32.7-29.9-32.7
					c-8.5,0-16.2,3.9-21.6,10.2v109.5H100.4z"/>
				
					<linearGradient id="SVGID_18_" gradientUnits="userSpaceOnUse" x1="888.0319" y1="-37.6165" x2="888.0319" y2="-159.6847" gradientTransform="matrix(0.9925 0 0 1 -879.462 379.5752)">
					<stop  offset="0.2228" style="stop-color:#000000"/>
					<stop  offset="0.3478" style="stop-color:#0D0D0D"/>
					<stop  offset="0.5795" style="stop-color:#2F2F2F"/>
					<stop  offset="0.8902" style="stop-color:#676767"/>
					<stop  offset="0.9901" style="stop-color:#7A7A7A"/>
				</linearGradient>
				<path class="st15" d="M46.7,306.6c-2.4-0.6-5.4-1.1-9-1.5c-4.2-0.4-8.6-0.7-13-0.7c-0.2-2.4-1.5-4.6-3.7-5.8
					c-3.5-1.9-7.8-0.6-9.7,2.9c-0.8-12.1-34.1-19.1-39.8-7.7c-0.6-4.4-3.1-8.4-7.2-10.6c-2.3-1.2-4.8-1.8-7.2-1.7v25.1H46.7z"/>
				
					<linearGradient id="SVGID_19_" gradientUnits="userSpaceOnUse" x1="852.3586" y1="-136.8879" x2="852.3586" y2="-290.5963" gradientTransform="matrix(0.9925 0 0 1 -879.462 379.5752)">
					<stop  offset="0.2228" style="stop-color:#000000"/>
					<stop  offset="0.3478" style="stop-color:#0D0D0D"/>
					<stop  offset="0.5795" style="stop-color:#2F2F2F"/>
					<stop  offset="0.8902" style="stop-color:#676767"/>
					<stop  offset="0.9901" style="stop-color:#7A7A7A"/>
				</linearGradient>
				<path class="st16" d="M-37.3,207.3c-2-0.3-3.9-0.5-5.7-0.6v9.9c3.1-0.2,5.6-1.1,6.9-2.1c6.5,0.7,11.7,0.1,11.9-1.6
					C-23.8,211-29.7,208.5-37.3,207.3z"/>
				
					<linearGradient id="SVGID_20_" gradientUnits="userSpaceOnUse" x1="939.0062" y1="16.7399" x2="939.0062" y2="-130.5054" gradientTransform="matrix(0.9925 0 0 1 -879.462 379.5752)">
					<stop  offset="0.2228" style="stop-color:#000000"/>
					<stop  offset="0.3478" style="stop-color:#0D0D0D"/>
					<stop  offset="0.5795" style="stop-color:#2F2F2F"/>
					<stop  offset="0.8902" style="stop-color:#676767"/>
					<stop  offset="0.9901" style="stop-color:#7A7A7A"/>
				</linearGradient>
				<path class="st17" d="M147.9,306.6c-3.1-4.2-7.1-7.8-11.9-10.5c-14.1-7.7-31-4.9-42,5.6c0-7-3.7-13.7-10.2-17.2
					c-6.3-3.4-13.6-2.9-19.3,0.5c-1.5-9.4-7.1-18-16-22.8c-11.6-6.3-25.5-4.4-35,3.7c-2.7-5.4-6.9-10.1-12.6-13.2
					c-14.6-7.9-32.8-2.5-40.7,12.3c-0.3,0.6-0.6,1.2-0.9,1.9c-0.7-0.7-1.5-1.4-2.2-2v41.8H147.9z"/>
			</g>
			<g>
				
					<linearGradient id="SVGID_21_" gradientUnits="userSpaceOnUse" x1="184.5033" y1="-37.1898" x2="184.5033" y2="-247.7097" gradientTransform="matrix(-0.9925 0 0 1 684.471 379.5752)">
					<stop  offset="0.2228" style="stop-color:#000000"/>
					<stop  offset="0.3478" style="stop-color:#0D0D0D"/>
					<stop  offset="0.5795" style="stop-color:#2F2F2F"/>
					<stop  offset="0.8902" style="stop-color:#676767"/>
					<stop  offset="0.9901" style="stop-color:#7A7A7A"/>
				</linearGradient>
				<path class="st18" d="M479.3,302.1c1,0.8,2.2,1.4,3.6,1.4c0.6,0,1.2-0.1,1.7-0.3c0.4,0.1,0.7,0.1,1.1,0.2
					c1.1,1.4,2.7,2.4,4.5,2.4c1.2,0,2.3-0.4,3.2-1.1c0.5,0.8,1.1,1.4,1.9,1.9h6c0.7-0.4,1.3-1,1.8-1.7c1.3,1,3,1.6,4.7,1.6
					c1.7,0,3.3-0.6,4.7-1.5c0.3,0.6,0.6,1.1,1,1.7h21.4v-37.7c-0.4,0.8-0.8,1.6-1.1,2.5c-0.9-1.2-2.3-2-3.9-2c-2.5,0-4.6,2-5,4.6
					c-1.9,0.3-3.7,0.7-5.6,1.2c-1.4-1.7-3.4-2.9-5.7-2.9c-4.2,0-7.5,3.7-7.5,8.2c0,0.2,0,0.5,0.1,0.7c-1,0.7-2,1.5-2.9,2.3
					c-1.1-1.5-2.7-2.5-4.6-2.5c-2.6,0-4.7,1.8-5.5,4.3c0,0-0.1,0-0.1,0c-1.1-1.3-2.6-2.1-4.3-2.1c-1.7,0-3.2,0.8-4.2,2
					c-0.5-0.1-0.9-0.2-1.4-0.2c-1.9,0-3.5,1-4.6,2.4c-6.4,1.7-10.5,4.3-10.5,7.2C467.9,297.7,472.3,300.4,479.3,302.1z"/>
				
					<linearGradient id="SVGID_22_" gradientUnits="userSpaceOnUse" x1="-116.6452" y1="346.8083" x2="-116.6452" y2="171.2787" gradientTransform="matrix(-0.9925 0 0 1 130.1891 0)">
					<stop  offset="0.2228" style="stop-color:#000000"/>
					<stop  offset="0.3478" style="stop-color:#0D0D0D"/>
					<stop  offset="0.5795" style="stop-color:#2F2F2F"/>
					<stop  offset="0.8902" style="stop-color:#676767"/>
					<stop  offset="0.9901" style="stop-color:#7A7A7A"/>
				</linearGradient>
				<path class="st19" d="M-5.4,306c2.1,0,4.1-0.6,5.8-1.6c0.5,0.8,1.1,1.5,1.7,2.2h516.3c0.6-0.3,1.1-0.7,1.5-1.1
					c1.4,0.1,2.9,0.2,4.5,0.2c3.8,0,7.3-0.4,10.4-1.1v-15.7c-3.1-0.7-6.6-1.1-10.4-1.1c-0.8,0-1.6,0-2.4,0.1
					c-2.5-3.8-10.8-6.7-20.6-6.7c-1.2,0-2.5,0.1-3.6,0.1c-1.2-4.9-5.2-8.5-10.1-8.5c-0.2,0-0.4,0-0.6,0c-0.8-8.5-7.3-15-15.3-15
					c-0.8,0-1.5,0.1-2.2,0.2c-3.7-11-13.3-18.8-24.7-18.8c-4.3,0-8.3,1.1-11.9,3.1c-2.9-6.1-8.8-10.3-15.6-10.3
					c-1.6,0-3,0.2-4.5,0.7c0-0.6,0.1-1.2,0.1-1.9c0-16.6-12.3-30-27.4-30c-4,0-7.7,0.9-11.2,2.6c-8.6-10.8-21.3-17.6-35.5-17.6
					c-10.3,0-19.8,3.6-27.6,9.7c-5.5-6.7-13.5-10.9-22.4-10.9c-8.1,0-15.4,3.5-20.8,9.2c-3.1-5.7-8.7-9.5-15.1-9.5
					c-0.3,0-0.6,0-1,0.1c-4.1-7.7-11.7-13-20.4-13c-9,0-16.9,5.5-20.8,13.7c-1.6-0.5-3.2-0.8-5-0.8c-6.3,0-11.7,3.6-14.9,9
					c-4.6-7.8-12.6-12.9-21.6-12.9c-10.6,0-19.7,7-23.7,17c-5.5-6.4-13.2-10.4-21.9-10.4c-16.5,0-29.9,14.6-29.9,32.7
					c0,3,0.4,5.9,1.1,8.7c-1-0.2-2-0.3-3-0.3c-7.1,0-13.3,3.8-17.1,9.7c-3.4-4.1-8.2-6.7-13.7-6.7c-7.4,0-13.8,4.8-16.7,11.8
					c-2.3-0.6-4.7-1-7.2-1c-14.5,0-26.6,11.3-29.3,26.2c0,0.1-0.1,0.1-0.1,0.2c-2.1-1.7-4.6-2.7-7.4-2.7c-6.8,0-12.3,6-12.3,13.5
					c0,0.1,0,0.2,0,0.3c-14.8,0.2-27,2.5-31.2,5.5v4.6c3.6,2.6,13.3,4.6,25.4,5.3C-16.6,301.1-11.5,306-5.4,306z"/>
				
					<linearGradient id="SVGID_23_" gradientUnits="userSpaceOnUse" x1="247.2622" y1="-166.5924" x2="247.2622" y2="-314.1111" gradientTransform="matrix(-0.9925 0 0 1 684.471 379.5752)">
					<stop  offset="0.2228" style="stop-color:#000000"/>
					<stop  offset="0.3478" style="stop-color:#0D0D0D"/>
					<stop  offset="0.5795" style="stop-color:#2F2F2F"/>
					<stop  offset="0.8902" style="stop-color:#676767"/>
					<stop  offset="0.9901" style="stop-color:#7A7A7A"/>
				</linearGradient>
				<path class="st20" d="M534.8,117.4c-4.5,4-7.9,9.1-10,14.7c-5.5,0.2-11,1.5-16.1,4.3c-2.1,1.1-4,2.4-5.7,3.9
					c-3.2-5.1-9.7-6.9-15-4c-4.4,2.4-6.6,7.4-5.8,12.1c-2.6,0.2-5.1,0.6-7.7,1.2c-0.1-0.2-0.2-0.5-0.3-0.7
					c-4.5-8.3-14.8-11.4-23-6.9c-5,2.7-8,7.6-8.7,12.8c-6.9-13.7-47.1-5.2-48.2,9.4c-2.3-4.2-7.5-5.8-11.7-3.5
					c-2.7,1.5-4.3,4.1-4.5,7c-5.3,0-10.7,0.3-15.8,0.9c-17.6,1.9-24.2,6.3-14.7,9.8c7.7,2.8,23.7,4.2,38.9,3.6
					c5.8,3.1,14.9,5.1,24.8,5.6c0,0.1,0.1,0.2,0.1,0.2c4.5,8.3,14.8,11.4,23.1,6.9c1.9-1,3.5-2.4,4.8-3.9c6.9,1,14.3,0.9,21.3-0.3
					c10.5,7.1,26.7,9.3,40.7,5c8.9,8.3,21.6,11.7,33.5,8.6V117.4z"/>
				
					<linearGradient id="SVGID_24_" gradientUnits="userSpaceOnUse" x1="392.0969" y1="-37.6164" x2="392.0969" y2="-159.6847" gradientTransform="matrix(-0.9925 0 0 1 684.471 379.5752)">
					<stop  offset="0.2228" style="stop-color:#000000"/>
					<stop  offset="0.3478" style="stop-color:#0D0D0D"/>
					<stop  offset="0.5795" style="stop-color:#2F2F2F"/>
					<stop  offset="0.8902" style="stop-color:#676767"/>
					<stop  offset="0.9901" style="stop-color:#7A7A7A"/>
				</linearGradient>
				<path class="st21" d="M534.8,306.6v-4.2c-0.1,0-0.1,0-0.2,0c-1.1,0-2.1,0.1-3.1,0.4c-0.1-0.3-0.2-0.7-0.4-1
					c-1.7-3.1-5.2-4.6-8.5-3.9c-1.2-0.6-2.4-1-3.8-1.3c0.2-1.6,0-3.3-0.8-4.8c-2.1-3.8-6.8-5.3-10.6-3.2c-1.6,0.8-2.7,2.2-3.4,3.7
					c-1-0.4-1.9-0.7-3-1c0.3-1.7,0.1-3.5-0.8-5.2c-2.1-3.8-6.8-5.3-10.6-3.2c-0.4,0.2-0.7,0.4-1,0.7c-5.9-9.8-18.4-13.3-28.5-7.8
					c-1.2,0.7-2.4,1.5-3.4,2.3c-3.9-3.9-9.5-5.5-14.9-4.3c-0.5-2.6-1.3-5.2-2.6-7.6c-4.7-8.7-13.6-13.6-22.7-13.4
					c-0.7-3.2-1.8-6.4-3.4-9.4c-9-16.7-29.7-22.9-46.2-13.9c-2.8,1.5-5.2,3.3-7.3,5.4c-0.2-0.5-0.5-1-0.7-1.5
					c-6.5-12.2-21.6-16.7-33.7-10.2c-4.7,2.6-8.3,6.4-10.5,10.9c-7.9-6.7-19.4-8.3-29-3.1c-7.4,4-12,11.1-13.3,18.9
					c-4.7-2.9-10.8-3.3-16-0.4c-5.4,2.9-8.4,8.5-8.4,14.3c-9.2-8.7-23.2-11-34.8-4.6c-6.7,3.6-11.4,9.4-13.8,16.1
					c-4.5,0.1-9.1,1.3-13.4,3.6c-1.7,0.9-3.3,2-4.8,3.2c-2.6-4.2-8-5.7-12.4-3.3c-3.7,2-5.5,6.1-4.8,10c-2.1,0.2-4.2,0.5-6.3,1
					c-0.1-0.2-0.1-0.4-0.2-0.6c-3.7-6.9-12.2-9.5-19.1-5.7c-4.1,2.2-6.7,6.3-7.2,10.6c-5.7-11.3-39-4.3-39.8,7.7
					c-1.9-3.5-6.2-4.8-9.7-2.9c-2.2,1.2-3.5,3.4-3.7,5.8c-4.4,0-8.9,0.3-13,0.7c-3.6,0.4-6.6,0.9-9,1.5H534.8z"/>
				
					<linearGradient id="SVGID_25_" gradientUnits="userSpaceOnUse" x1="356.4236" y1="-136.8881" x2="356.4236" y2="-290.5958" gradientTransform="matrix(-0.9925 0 0 1 684.471 379.5752)">
					<stop  offset="0.2228" style="stop-color:#000000"/>
					<stop  offset="0.3478" style="stop-color:#0D0D0D"/>
					<stop  offset="0.5795" style="stop-color:#2F2F2F"/>
					<stop  offset="0.8902" style="stop-color:#676767"/>
					<stop  offset="0.9901" style="stop-color:#7A7A7A"/>
				</linearGradient>
				<path class="st22" d="M534.8,135.4c-6.2-4-13.6-6.3-21.6-6.3c-3.9,0-7.6,0.6-11.2,1.6c-4.9-23.8-25.8-41.7-50.9-41.7
					c-17.5,0-32.9,8.7-42.3,22c-6.9-5.7-15.6-9.1-25.2-9.1c-20.8,0-37.8,16-39.6,36.5c-4.1-4.5-9.9-7.3-16.4-7.3
					c-11.5,0-20.9,8.8-22.1,20c-5-3.6-11.1-5.8-17.7-5.8c-14,0-25.8,9.6-29.3,22.6c-0.9-0.2-1.8-0.3-2.8-0.3
					c-7.1,0-12.8,5.8-12.8,12.9c0,0.1,0,0.2,0,0.3c-0.9-0.2-1.8-0.3-2.7-0.3c-6.5,0-11.9,4.9-12.7,11.3c-2.3-1-4.7-1.6-7.4-1.6
					c-4.1,0-7.9,1.4-11,3.7c-2.3-2-5.2-3.2-8.4-3.2c-4.8,0-9,2.7-11.2,6.6c-0.9-0.4-1.9-0.7-2.9-0.7c-3,0-5.6,2-6.5,4.7
					c-2.9,0.3-5.4,1.8-7,4c-1.4-1.3-3.2-2.1-5.2-2.1c-2.2,0-4.1,0.9-5.5,2.4c-0.6-2.1-3.6-3.6-7-3.3c-3.4,0.3-6.1,2.1-6.5,4.2
					c-2.5-0.2-5.7,0-9.2,0.6c-7.6,1.2-13.5,3.7-13.2,5.6c0.3,1.7,5.4,2.3,11.9,1.6c1.4,1.2,4.3,2.1,7.7,2.2c3.1,0.1,5.8-0.4,7.4-1.3
					c1.1,1.4,2.8,2.3,4.7,2.3c1.5,0,2.9-0.6,4-1.5c1.4,1.6,3.4,2.6,5.7,2.6c2,0,3.8-0.8,5.2-2.1c1.7,2.5,4.6,4.1,7.8,4.1
					c2.8,0,5.4-1.3,7.1-3.3c2.2,3.8,6.3,6.3,10.9,6.3c2.9,0,5.6-1,7.7-2.7c3.3,3.6,8.1,5.9,13.4,5.9c6.7,0,12.6-3.7,15.7-9.2
					c3.9,6.3,10.9,10.5,18.8,10.5c6.1,0,11.7-2.5,15.7-6.6c5.3,7.3,13.8,12,23.4,12c6.9,0,13.2-2.4,18.1-6.4
					c8,9.4,19.9,15.3,33.2,15.3c11,0,21-4.1,28.7-10.8c4.7,5.4,11.6,8.8,19.2,8.8c9.2,0,17.2-4.9,21.8-12.2
					c7.3,7.5,17.6,12.2,28.9,12.2c14.7,0,27.5-7.9,34.6-19.7c4.1,7.7,12.1,12.9,21.4,12.9c10.4,0,19.2-6.6,22.7-15.8
					c2,6.4,6.5,11.7,12.4,14.6V135.4z"/>
				
					<linearGradient id="SVGID_26_" gradientUnits="userSpaceOnUse" x1="347.4656" y1="-33.568" x2="347.4656" y2="-217.248" gradientTransform="matrix(-0.9925 0 0 1 684.471 379.5752)">
					<stop  offset="0.2228" style="stop-color:#000000"/>
					<stop  offset="0.3478" style="stop-color:#0D0D0D"/>
					<stop  offset="0.5795" style="stop-color:#2F2F2F"/>
					<stop  offset="0.8902" style="stop-color:#676767"/>
					<stop  offset="0.9901" style="stop-color:#7A7A7A"/>
				</linearGradient>
				<path class="st23" d="M149.3,306.6h385.6V169.9c-5.7-4.8-13.1-7.6-21.1-7.6c-18.2,0-32.9,14.7-33.3,32.9
					c-3.2-1.4-6.8-2.2-10.5-2.2c-12.5,0-23,8.6-26,20.2c-1.5-0.6-3.1-0.9-4.7-0.9c-7.4,0-13.3,6-13.3,13.4c0,1,0.1,2,0.3,3
					c-10,0.9-18.5,6.9-22.9,15.5c-2.9-1.6-6.3-2.4-9.8-2.4c-10.8,0-19.6,8.1-20.9,18.6c-2.2-6.2-8-10.6-14.9-10.6
					c-5.6,0-10.5,2.9-13.3,7.3c-3.1-1.7-6.7-2.6-10.5-2.6c-10.7,0-19.6,7.5-21.9,17.5c-2.7-1.2-5.7-1.8-8.8-1.8
					c-5,0-9.6,1.7-13.3,4.4c-2.1-1.2-4.6-1.9-7.2-1.9c-3.5,0-6.8,1.2-9.3,3.3c-1.8-3.7-5.5-6.3-9.9-6.3c-5.8,0-10.6,4.5-11,10.3
					c-1.7-0.7-3.7-1.1-5.7-1.1c-4.1,0-7.8,1.7-10.5,4.4c-2-2.8-5.3-4.7-9-4.7c-5.3,0-9.7,3.8-10.8,8.8c-1.6-0.9-3.4-1.4-5.4-1.4
					c-3.7,0-6.9,1.8-8.9,4.6c-1.9-1.7-4.4-2.7-7.2-2.7c-5.6,0-10.2,4.2-10.9,9.6c-22.3,0.2-39.8,2.9-39.8,6.2
					C144.4,304.8,146.2,305.7,149.3,306.6z"/>
				
					<linearGradient id="SVGID_27_" gradientUnits="userSpaceOnUse" x1="235.7442" y1="34.8546" x2="235.7442" y2="-137.5199" gradientTransform="matrix(-0.9925 0 0 1 684.471 379.5752)">
					<stop  offset="0.2228" style="stop-color:#000000"/>
					<stop  offset="0.3478" style="stop-color:#0D0D0D"/>
					<stop  offset="0.5795" style="stop-color:#2F2F2F"/>
					<stop  offset="0.8902" style="stop-color:#676767"/>
					<stop  offset="0.9901" style="stop-color:#7A7A7A"/>
				</linearGradient>
				<path class="st24" d="M534.8,306.6v-64.2c-2.1-0.2-4.3-0.4-6.5-0.4c-19.6,0-36.9,9.7-47.4,24.6c-7.7-6.3-17.5-10.2-28.2-10.2
					c-23.3,0-42.4,18-44.5,40.9c-4.6-5-11.1-8.2-18.4-8.2c-11.1,0-20.4,7.2-23.7,17.3H534.8z"/>
				
					<linearGradient id="SVGID_28_" gradientUnits="userSpaceOnUse" x1="341.8973" y1="34.8529" x2="341.8973" y2="-137.5188" gradientTransform="matrix(-0.9925 0 0 1 684.471 379.5752)">
					<stop  offset="0.2228" style="stop-color:#000000"/>
					<stop  offset="0.3478" style="stop-color:#0D0D0D"/>
					<stop  offset="0.5795" style="stop-color:#2F2F2F"/>
					<stop  offset="0.8902" style="stop-color:#676767"/>
					<stop  offset="0.9901" style="stop-color:#7A7A7A"/>
				</linearGradient>
				<path class="st25" d="M354.1,306.6c-2.9-0.8-5.8-1.2-8.9-1.2c-3.1,0-6.2,0.4-9,1.2H354.1z"/>
				
					<linearGradient id="SVGID_29_" gradientUnits="userSpaceOnUse" x1="590.2043" y1="16.7399" x2="590.2043" y2="-130.5054" gradientTransform="matrix(-0.9925 0 0 1 684.471 379.5752)">
					<stop  offset="0.2228" style="stop-color:#000000"/>
					<stop  offset="0.3478" style="stop-color:#0D0D0D"/>
					<stop  offset="0.5795" style="stop-color:#2F2F2F"/>
					<stop  offset="0.8902" style="stop-color:#676767"/>
					<stop  offset="0.9901" style="stop-color:#7A7A7A"/>
				</linearGradient>
				<path class="st26" d="M240.3,306.6c-0.3-0.6-0.6-1.3-0.9-1.9c-5.6-10.5-16.4-16.4-27.4-16.2c-0.8-3.9-2.1-7.7-4.1-11.4
					c-10.8-20.2-35.8-27.7-55.8-16.8c-3.3,1.8-6.3,4-8.9,6.5c-0.3-0.6-0.6-1.3-0.9-1.9c-7.9-14.7-26.1-20.2-40.7-12.3
					c-5.7,3.1-10,7.8-12.6,13.2c-9.5-8.1-23.4-10-35-3.7c-8.9,4.9-14.5,13.4-16,22.8c-5.7-3.5-13-3.9-19.3-0.5
					c-6.5,3.5-10.1,10.3-10.2,17.2c-11.1-10.5-27.9-13.2-42-5.6c-3.6,2-6.8,4.5-9.4,7.4v3H240.3z"/>
			</g>
		</g>
		<g class="st0">
			<g>
				
					<linearGradient id="SVGID_30_" gradientUnits="userSpaceOnUse" x1="890.1064" y1="-113.4482" x2="890.1064" y2="-199.6177" gradientTransform="matrix(0.9925 0 0 1 -879.462 379.5752)">
					<stop  offset="0.2228" style="stop-color:#000000"/>
					<stop  offset="0.2921" style="stop-color:#0D0D0D"/>
					<stop  offset="0.4207" style="stop-color:#303030"/>
					<stop  offset="0.5946" style="stop-color:#686868"/>
					<stop  offset="0.8043" style="stop-color:#B4B4B4"/>
					<stop  offset="0.995" style="stop-color:#FFFFFF"/>
				</linearGradient>
				<path class="st27" d="M33.8,243.7c-0.4-0.6-1.1-1-1.9-1c-0.2,0-0.4,0-0.6,0.1c-0.4-0.5-1.1-0.8-1.7-0.8c-0.7,0-1.3,0.3-1.8,0.8
					c0,0,0,0-0.1,0c-0.3-1-1.2-1.8-2.3-1.8c-0.8,0-1.5,0.4-1.9,1c-0.4-0.3-0.8-0.7-1.2-1c0-0.1,0-0.2,0-0.3c0-1.9-1.4-3.4-3.1-3.4
					c-0.9,0-1.8,0.5-2.3,1.2c-0.8-0.2-1.5-0.4-2.3-0.5c-0.2-1.1-1-1.9-2-1.9c-0.6,0-1.2,0.3-1.6,0.8c-0.8-2.3-2.8-3.9-5.1-3.9
					c-1.4,0-2.7,0.6-3.7,1.6c-0.4-0.2-0.9-0.3-1.3-0.3c-0.2,0-0.3,0-0.5,0.1c-0.6-2.6-2.7-4.6-5.3-4.6c-0.5,0-1,0.1-1.5,0.2
					c-0.1-0.1-0.3-0.1-0.4-0.2c-1.3-1.8-3.7-3.3-6.6-3.8c-2.7-0.5-5.3,0-7.1,1.1c-1.4-3.6-4.6-6.2-8.5-6.2c-0.5,0-0.9,0-1.3,0.1
					v32.3c0.3,0,0.5-0.1,0.8-0.2c1.2,4.7,25.2,4.6,27.2,0.2c2.9,0.7,4.7,0,5.7-0.8c0.5,0.3,1,0.5,1.7,0.5c1,0,1.9-0.5,2.5-1.2
					c1.4,0.3,2.5,0.2,3.3-0.1c1,1.2,2.4,2,4,2c2.1,0,3.8-1.3,4.7-3.1c0.5,0.4,1.2,0.6,1.9,0.6c0.7,0,1.4-0.2,1.9-0.7
					c0.4,0.7,1.1,1.1,1.9,1.1c0.8,0,1.6-0.5,2-1.2c0.4,0.3,0.8,0.4,1.3,0.4c0.7,0,1.4-0.4,1.9-1c0.1,0,0.3,0,0.4-0.1
					c0.2,0.1,0.5,0.1,0.7,0.1c0.6,0,1.1-0.2,1.5-0.6c2.8-0.7,4.7-1.8,4.7-3.1C38.1,245.4,36.5,244.4,33.8,243.7z"/>
				
					<linearGradient id="SVGID_31_" gradientUnits="userSpaceOnUse" x1="455.6156" y1="267.9374" x2="455.6156" y2="196.0901" gradientTransform="matrix(0.9925 0 0 1 -325.1802 0)">
					<stop  offset="0.2228" style="stop-color:#000000"/>
					<stop  offset="0.2921" style="stop-color:#0D0D0D"/>
					<stop  offset="0.4207" style="stop-color:#303030"/>
					<stop  offset="0.5946" style="stop-color:#686868"/>
					<stop  offset="0.8043" style="stop-color:#B4B4B4"/>
					<stop  offset="0.995" style="stop-color:#FFFFFF"/>
				</linearGradient>
				<path class="st28" d="M236.8,246.6c-0.4,2.6-2.5,4.6-5,4.6c-0.9,0-1.7-0.2-2.4-0.6c-0.9,1.4-2.4,2.4-4.1,2.4c-0.1,0-0.2,0-0.4,0
					c-0.9,4-7,7.1-14.3,7.1c-2.6,0-5-0.4-7.1-1.1c-0.8,0.4-1.6,0.6-2.5,0.6c-0.8,0-1.5-0.2-2.2-0.4c-1.9,2.4-4.7,3.9-7.9,3.9
					c-3,0-5.7-1.4-7.6-3.6c-3.2,5.1-8.5,8.4-14.5,8.4c-3.9,0-7.4-1.4-10.3-3.7c-1.3,2.3-3.6,3.8-6.2,3.8c-2.6,0-5-1.5-6.2-3.8
					c-1,0.4-2.1,0.7-3.3,0.7c-3.5,0-6.6-2-8.3-5.1c-2.8,3.6-7.9,6-13.8,6c-4.8,0-9-1.6-12-4.1c-1.6,1.8-3.8,2.9-6.2,2.9
					c-3.1,0-5.8-1.8-7.4-4.4c-1,1.2-2.5,1.9-4.1,1.9c-1.6,0-3.1-0.8-4.2-2c-1.8,1.6-4.1,2.5-6.6,2.5c-2,0-3.9-0.6-5.6-1.7
					c-1,1.8-2.8,2.9-4.8,2.9c-2.3,0-4.2-1.5-5.1-3.6c-1.9,1.9-4.5,3.1-7.3,3.1c-3.4,0-6.4-1.7-8.4-4.4c-1.1,1.2-2.7,2-4.4,2
					c-1.7,0-3.2-0.7-4.4-1.9c-1.1,0.6-2.2,0.9-3.5,0.9c-2.5,0-4.8-1.3-6.1-3.4c-0.4,0.1-0.8,0.2-1.3,0.2c-1.9,0-3.5-1.5-3.9-3.5
					c-0.3,0-0.7,0-1,0c-3.4,0-6.4-0.8-7.8-2c-0.6,0.1-1.2,0.1-1.8,0.1c-4.8,0-8.8-1.6-8.8-3.7c0-2,3.9-3.7,8.8-3.7c0.3,0,0.7,0,1,0
					c1-1.6,4.4-2.7,8.5-2.7c0.5,0,1,0,1.5,0.1c0.5-2,2.1-3.5,4.1-3.5c0.1,0,0.2,0,0.3,0c0.3-3.5,3-6.2,6.3-6.2c0.3,0,0.6,0,0.9,0.1
					c1.5-4.5,5.5-7.7,10.1-7.7c1.8,0,3.4,0.5,4.9,1.3c1.2-2.5,3.6-4.2,6.4-4.2c0.6,0,1.2,0.1,1.8,0.3c0-0.3,0-0.5,0-0.8
					c0-6.8,5-12.3,11.2-12.3c1.6,0,3.2,0.4,4.6,1.1c3.5-4.4,8.7-7.2,14.5-7.2c4.2,0,8.1,1.5,11.3,4c2.3-2.7,5.5-4.5,9.2-4.5
					c3.3,0,6.3,1.4,8.5,3.7c1.3-2.3,3.6-3.9,6.2-3.9c0.1,0,0.3,0,0.4,0c1.7-3.2,4.8-5.3,8.4-5.3c3.7,0,6.9,2.3,8.5,5.6
					c0.6-0.2,1.3-0.3,2-0.3c2.6,0,4.8,1.5,6.1,3.7c1.9-3.2,5.1-5.3,8.9-5.3c4.3,0,8.1,2.9,9.7,7c2.2-2.6,5.4-4.3,8.9-4.3
					c6.8,0,12.2,6,12.2,13.4c0,1.2-0.2,2.4-0.4,3.5c0.4-0.1,0.8-0.1,1.2-0.1c2.9,0,5.4,1.6,7,4c1.4-1.7,3.4-2.7,5.6-2.7
					c3,0,5.7,2,6.8,4.8c0.9-0.3,1.9-0.4,2.9-0.4c5.9,0,10.9,4.6,12,10.7c0,0,0,0,0,0.1c0.8-0.7,1.9-1.1,3-1.1c2.8,0,5.1,2.5,5.1,5.5
					c0,0,0,0.1,0,0.1c7.5,0.1,13.4,1.5,13.4,3.2C247.8,245,243.1,246.3,236.8,246.6z"/>
				
					<linearGradient id="SVGID_32_" gradientUnits="userSpaceOnUse" x1="915.7947" y1="-166.4151" x2="915.7947" y2="-226.7975" gradientTransform="matrix(0.9925 0 0 1 -879.462 379.5752)">
					<stop  offset="0.2228" style="stop-color:#000000"/>
					<stop  offset="0.2921" style="stop-color:#0D0D0D"/>
					<stop  offset="0.4207" style="stop-color:#303030"/>
					<stop  offset="0.5946" style="stop-color:#686868"/>
					<stop  offset="0.8043" style="stop-color:#B4B4B4"/>
					<stop  offset="0.995" style="stop-color:#FFFFFF"/>
				</linearGradient>
				<path class="st29" d="M81.3,194.9c-2.1-0.2-4.3-0.3-6.4-0.3c-0.1-1.2-0.7-2.3-1.8-2.9c-1.7-0.9-3.9-0.3-4.8,1.4
					c-0.4-6-16.9-9.4-19.7-3.8c-0.3-2.2-1.5-4.1-3.6-5.3c-3.4-1.8-7.6-0.6-9.4,2.8c0,0.1-0.1,0.2-0.1,0.3c-1-0.2-2.1-0.4-3.1-0.5
					c0.3-1.9-0.5-4-2.4-5c-2.2-1.2-4.8-0.4-6.2,1.6c-0.7-0.6-1.5-1.1-2.4-1.6c-2.1-1.1-4.4-1.7-6.6-1.8c-1.2-3.3-3.6-6.2-6.9-7.9
					c-5.8-3.1-12.7-2-17.2,2.3c0-2.9-1.5-5.6-4.2-7.1c-2.6-1.4-5.6-1.2-7.9,0.2c-0.6-3.8-2.9-7.4-6.6-9.4c-0.7-0.4-1.5-0.7-2.2-0.9
					V211c0.2,0.1,0.3,0.2,0.5,0.3c7.1,3.9,15.8,1.5,20.1-5.3c0.9,1.4,2.1,2.6,3.7,3.5c4.1,2.2,9.1,1.3,12.1-2
					c0.4,0.2,0.7,0.5,1.1,0.7c5.7,3.1,12.6,2,17.1-2.2c5.7,1.8,12.4,0.9,16.7-2c2.9,0.5,5.9,0.5,8.7,0.1c0.5,0.6,1.2,1.2,2,1.6
					c3.4,1.8,7.6,0.6,9.4-2.8c0,0,0-0.1,0-0.1c4-0.2,7.8-1,10.1-2.3c6.2,0.2,12.8-0.3,15.9-1.5C91.2,197.5,88.5,195.7,81.3,194.9z"
					/>
				
					<linearGradient id="SVGID_33_" gradientUnits="userSpaceOnUse" x1="991.1" y1="-113.6229" x2="991.1" y2="-163.5878" gradientTransform="matrix(0.9925 0 0 1 -879.462 379.5752)">
					<stop  offset="0.2228" style="stop-color:#000000"/>
					<stop  offset="0.2921" style="stop-color:#0D0D0D"/>
					<stop  offset="0.4207" style="stop-color:#303030"/>
					<stop  offset="0.5946" style="stop-color:#686868"/>
					<stop  offset="0.8043" style="stop-color:#B4B4B4"/>
					<stop  offset="0.995" style="stop-color:#FFFFFF"/>
				</linearGradient>
				<path class="st30" d="M203.1,250.9c-1.7-0.2-3.5-0.3-5.3-0.3c-0.1-1-0.6-1.9-1.5-2.4c-1.4-0.8-3.2-0.2-4,1.2
					c-0.3-4.9-14-7.8-16.3-3.2c-0.2-1.8-1.3-3.4-3-4.3c-2.8-1.5-6.3-0.5-7.8,2.4c0,0.1-0.1,0.2-0.1,0.2c-0.9-0.2-1.7-0.3-2.6-0.4
					c0.3-1.6-0.5-3.3-2-4.1c-1.8-1-4-0.4-5.1,1.4c-0.6-0.5-1.2-0.9-1.9-1.3c-1.7-0.9-3.6-1.4-5.5-1.5c-1-2.7-2.9-5.1-5.7-6.6
					c-4.8-2.6-10.5-1.7-14.3,1.9c0-2.4-1.2-4.6-3.4-5.8c-2.1-1.2-4.6-1-6.5,0.2c-0.5-3.2-2.4-6.1-5.4-7.7c-3.9-2.1-8.6-1.5-11.9,1.2
					c-0.9-1.8-2.4-3.4-4.3-4.5c-5-2.7-11.1-0.8-13.8,4.2c-0.1,0.2-0.2,0.4-0.3,0.6c-0.9-0.8-1.9-1.6-3-2.2
					c-6.8-3.7-15.3-1.1-18.9,5.7c-0.7,1.2-1.1,2.5-1.4,3.9c-3.8-0.1-7.4,1.9-9.3,5.5c-0.5,1-0.9,2.1-1.1,3.1
					c-2.2-0.5-4.5,0.2-6.1,1.8c-0.4-0.4-0.9-0.7-1.4-0.9c-4.1-2.2-9.3-0.8-11.7,3.2c-0.1-0.1-0.3-0.2-0.4-0.3
					c-1.6-0.8-3.5-0.3-4.3,1.3c-0.4,0.7-0.4,1.4-0.3,2.1c-0.4,0.1-0.8,0.2-1.2,0.4c-0.3-0.6-0.7-1.1-1.4-1.5
					c-1.6-0.8-3.5-0.3-4.3,1.3c-0.3,0.6-0.4,1.3-0.3,2c-0.5,0.1-1.1,0.3-1.5,0.5c-1.4-0.3-2.8,0.3-3.5,1.6c-0.1,0.1-0.1,0.3-0.2,0.4
					c-0.4-0.1-0.8-0.1-1.3-0.1c-1.6,0-2.9,0.6-3.6,1.5c-0.1,0-0.2,0-0.3,0c-4.4,0-7.9,0.7-7.9,1.5c0,0.8,3.5,1.5,7.9,1.5
					c0.1,0,0.2,0,0.3,0c0.7,0.9,2.1,1.5,3.6,1.5c0.9,0,1.7-0.2,2.4-0.5c0.6,1,1.4,1.9,2.6,2.4c1.7,0.8,3.7,0.8,5.4,0.2
					c0.5,0.4,1,0.8,1.6,1.2c2.3,1.3,5,1.2,7.2,0c0.5,0.6,1.2,1.1,1.9,1.5c3.4,1.9,7.6,0.8,9.8-2.3c0.6,1.7,1.8,3.2,3.5,4.1
					c3.5,1.9,7.9,0.6,9.8-2.8c1.2,1.6,2.7,3.1,4.6,4.1c6,3.3,13.2,1.7,17.4-3.4c0.8,1.4,2,2.6,3.5,3.4c4.3,2.4,9.8,0.7,12.1-3.6
					c0-0.1,0.1-0.1,0.1-0.2c0.6,1.8,1.8,3.4,3.6,4.3c3.7,2,8.3,0.6,10.3-3.1c0.1-0.3,0.3-0.5,0.4-0.8c1.1,1.7,2.6,3.2,4.5,4.2
					c5.9,3.2,13.1,1.2,16.6-4.4c0.7,1.2,1.8,2.2,3.1,2.9c3.4,1.9,7.5,1.1,10-1.7c0.3,0.2,0.6,0.4,0.9,0.6c4.8,2.6,10.4,1.7,14.2-1.8
					c4.7,1.5,10.2,0.7,13.8-1.7c2.4,0.4,4.9,0.4,7.2,0.1c0.4,0.5,1,1,1.6,1.3c2.8,1.5,6.3,0.5,7.8-2.4c0,0,0-0.1,0-0.1
					c3.3-0.2,6.4-0.8,8.4-1.9c5.1,0.2,10.6-0.3,13.2-1.2C211.3,253,209.1,251.5,203.1,250.9z"/>
				
					<linearGradient id="SVGID_34_" gradientUnits="userSpaceOnUse" x1="875.2656" y1="-157.4083" x2="875.2656" y2="-221.8403" gradientTransform="matrix(0.9925 0 0 1 -879.462 379.5752)">
					<stop  offset="0.2228" style="stop-color:#000000"/>
					<stop  offset="0.2921" style="stop-color:#0D0D0D"/>
					<stop  offset="0.4207" style="stop-color:#303030"/>
					<stop  offset="0.5946" style="stop-color:#686868"/>
					<stop  offset="0.8043" style="stop-color:#B4B4B4"/>
					<stop  offset="0.995" style="stop-color:#FFFFFF"/>
				</linearGradient>
				<path class="st31" d="M3.1,207.3c-1.5-0.2-2.8-0.3-3.8-0.2c-0.2-0.9-1.3-1.7-2.7-1.8c-1.4-0.1-2.7,0.5-3,1.4
					c-0.6-0.6-1.4-1-2.3-1c-0.8,0-1.6,0.3-2.2,0.9c-0.7-0.9-1.7-1.6-2.9-1.7c-0.4-1.1-1.5-2-2.7-2c-0.4,0-0.9,0.1-1.2,0.3
					c-0.9-1.6-2.7-2.8-4.7-2.8c-1.4,0-2.6,0.5-3.5,1.3c-1.2-0.9-2.6-1.5-4.2-1.5v15.4c2.1-0.1,3.9-1,5.2-2.5c0.9,0.7,2,1.1,3.2,1.1
					c2,0,3.7-1.1,4.6-2.6c0.7,0.8,1.8,1.4,3,1.4c1.4,0,2.6-0.7,3.3-1.7c0.6,0.5,1.3,0.9,2.2,0.9c1,0,1.8-0.4,2.4-1.1
					c0.4,0.4,1,0.6,1.7,0.6c0.8,0,1.5-0.4,2-0.9c0.7,0.4,1.8,0.6,3.1,0.6c1.4,0,2.7-0.4,3.2-0.9c2.7,0.3,4.9,0,5-0.7
					C8.8,208.9,6.3,207.8,3.1,207.3z"/>
				
					<linearGradient id="SVGID_35_" gradientUnits="userSpaceOnUse" x1="960.4766" y1="-154.2566" x2="960.4766" y2="-217.172" gradientTransform="matrix(0.9925 0 0 1 -879.462 379.5752)">
					<stop  offset="0.2228" style="stop-color:#000000"/>
					<stop  offset="0.2921" style="stop-color:#0D0D0D"/>
					<stop  offset="0.4207" style="stop-color:#303030"/>
					<stop  offset="0.5946" style="stop-color:#686868"/>
					<stop  offset="0.8043" style="stop-color:#B4B4B4"/>
					<stop  offset="0.995" style="stop-color:#FFFFFF"/>
				</linearGradient>
				<path class="st32" d="M172.4,210.8c-1.4-0.2-2.7-0.3-3.8-0.2c-0.2-0.9-1.3-1.6-2.6-1.7c-1.4-0.1-2.6,0.5-2.9,1.4
					c-0.6-0.6-1.4-1-2.3-1c-0.8,0-1.6,0.3-2.1,0.8c-0.7-0.9-1.7-1.5-2.9-1.6c-0.4-1.1-1.4-1.9-2.7-1.9c-0.4,0-0.8,0.1-1.2,0.3
					c-0.9-1.6-2.6-2.7-4.6-2.7c-1.3,0-2.5,0.5-3.5,1.3c-1.2-1-2.8-1.5-4.5-1.5c-1.1,0-2.1,0.2-3,0.6c-0.3-2.6-2.5-4.6-5.2-4.6
					c-0.4,0-0.8,0-1.1,0.1c0,0,0-0.1,0-0.1c0-2.9-2.3-5.3-5.2-5.3c-0.4,0-0.8,0-1.1,0.1c-1.4-5.3-6.2-9.2-12-9.2
					c-2.7,0-5.2,0.9-7.2,2.4c-0.5-4.6-4.4-8.2-9.1-8.2c-2.7,0-5,1.2-6.7,3c-0.7-8.4-7.7-14.9-16.2-14.9c-3.9,0-7.5,1.4-10.3,3.7
					c-3.9-5.4-10.2-9-17.3-9c-10.3,0-18.8,7.3-20.8,17.1c-1.5-0.4-3-0.7-4.6-0.7c-8.5,0-15.5,6.4-16.5,14.7c-1-0.3-2.1-0.5-3.2-0.5
					c-3.6,0-6.7,2-8.4,4.9c-1-0.3-2.1-0.5-3.2-0.5c-4,0-7.4,2-9.5,5.1c-0.8-0.5-1.7-0.8-2.7-0.8c-2.2,0-4.1,1.5-4.6,3.5
					c-0.4-0.2-0.9-0.3-1.4-0.3c-0.1,0-0.2,0-0.3,0v9.9c0.2-0.2,0.4-0.3,0.6-0.5c0.9,1.1,2.3,1.9,3.8,1.9c1.7,0,3.2-0.9,4-2.2
					c1.9,3.7,5.7,6.2,10.1,6.2c3.5,0,6.7-1.6,8.8-4.2c1.5,3.6,5,6.2,9.2,6.2c4.5,0,8.2-3,9.5-7c1.4,3.8,5,6.5,9.3,6.5
					c3.8,0,7.1-2.1,8.8-5.3c2.9,4.8,8.2,8.1,14.2,8.1c4.6,0,8.8-1.9,11.8-5c1.9,3,5.1,5,8.9,5c3.1,0,5.9-1.4,7.9-3.6
					c3.2,2.8,7.3,4.4,11.8,4.4c5.4,0,10.3-2.4,13.6-6.3c2,1.6,4.6,2.6,7.4,2.6c3.9,0,7.4-1.9,9.6-4.9c1.6,1.7,3.9,2.7,6.4,2.7
					c3.3,0,6.1-1.7,7.7-4.3c1.3,2.2,3.7,3.7,6.4,3.7c2.2,0,4.1-0.9,5.5-2.4c0.9,0.7,2,1.1,3.2,1.1c1.9,0,3.6-1,4.5-2.6
					c0.7,0.8,1.8,1.3,2.9,1.3c1.3,0,2.5-0.7,3.2-1.7c0.6,0.5,1.3,0.8,2.1,0.8c0.9,0,1.8-0.4,2.3-1.1c0.4,0.4,1,0.6,1.6,0.6
					c0.8,0,1.5-0.4,1.9-0.9c0.7,0.4,1.8,0.6,3,0.5c1.4,0,2.6-0.4,3.2-0.9c2.7,0.3,4.8,0,4.9-0.7
					C177.9,212.3,175.5,211.3,172.4,210.8z"/>
				
					<linearGradient id="SVGID_36_" gradientUnits="userSpaceOnUse" x1="956.8099" y1="-111.9657" x2="956.8099" y2="-187.1492" gradientTransform="matrix(0.9925 0 0 1 -879.462 379.5752)">
					<stop  offset="0.2228" style="stop-color:#000000"/>
					<stop  offset="0.2921" style="stop-color:#0D0D0D"/>
					<stop  offset="0.4207" style="stop-color:#303030"/>
					<stop  offset="0.5946" style="stop-color:#686868"/>
					<stop  offset="0.8043" style="stop-color:#B4B4B4"/>
					<stop  offset="0.995" style="stop-color:#FFFFFF"/>
				</linearGradient>
				<path class="st33" d="M154.2,247.8c-0.3-2.2-2.2-3.9-4.5-3.9c-1.1,0-2.2,0.4-2.9,1.1c-0.8-1.1-2.2-1.9-3.7-1.9
					c-0.8,0-1.5,0.2-2.2,0.6c-0.4-2-2.2-3.6-4.4-3.6c-1.5,0-2.8,0.8-3.7,1.9c-1.1-1.1-2.6-1.8-4.3-1.8c-0.8,0-1.6,0.2-2.3,0.5
					c-0.2-2.4-2.1-4.2-4.5-4.2c-1.8,0-3.3,1-4.1,2.6c-1-0.8-2.4-1.4-3.8-1.4c-1.1,0-2.1,0.3-2.9,0.8c-1.5-1.1-3.4-1.8-5.5-1.8
					c-1.3,0-2.5,0.3-3.6,0.7c-1-4.1-4.6-7.2-9-7.2c-1.6,0-3,0.4-4.3,1.1c-1.2-1.8-3.2-3-5.4-3c-2.8,0-5.2,1.8-6.1,4.3
					c-0.5-4.3-4.2-7.6-8.6-7.6c-1.4,0-2.8,0.4-4,1c-1.8-3.5-5.3-6-9.4-6.3c0.1-0.4,0.1-0.8,0.1-1.2c0-3-2.4-5.5-5.4-5.5
					c-0.7,0-1.3,0.1-1.9,0.4c-1.2-4.8-5.5-8.3-10.6-8.3c-1.5,0-3,0.3-4.3,0.9c-0.1-7.5-6.2-13.5-13.6-13.5c-7.2,0-13,5.6-13.6,12.7
					c-2-1.8-4.6-3-7.5-3c-5.8,0-10.6,4.6-11,10.3c-0.8-0.3-1.7-0.5-2.7-0.5c-3.5,0-6.5,2.5-7.2,5.8c-2.2-1.4-4.8-2.3-7.6-2.3V259
					c1.6,0.8,3.5,1.2,5.4,1.2c4.5,0,8.5-2.4,10.8-5.9c3.7,5.7,10.2,9.5,17.5,9.5c4.3,0,8.3-1.3,11.7-3.6c1.7,2.1,4.2,3.4,7.1,3.4
					c2.6,0,5-1.1,6.6-2.9c1.7,2.7,4.7,4.6,8.1,4.6c3,0,5.7-1.4,7.5-3.7c1.8,3.5,5.4,6,9.6,6c4.5,0,8.3-2.8,10-6.7
					c2,2.2,4.8,3.5,8,3.5c2.2,0,4.3-0.7,6-1.8c1.2,0.6,2.6,1,4.1,1c4.2,0,7.7-2.8,8.9-6.7c1.7,2,4.2,3.3,7.1,3.3
					c1.5,0,2.8-0.3,4.1-1c0.8,0.7,1.8,1.1,2.9,1.1c1.9,0,3.5-1.2,4.1-2.8c2,0.4,4.1,0.5,6.3,0.5c2.9,0,5.6-0.3,7.9-0.9
					c5.1,5.7,12.6,2.2,13.6-1.2c3.7-0.3,6.9-1,9.2-1.9c0.7,0.8,1.6,1.2,2.7,1.2c1.6,0,3-1.1,3.4-2.5c0.2,0,0.4,0,0.6,0
					c9.7,0,17.6-1.1,17.6-2.5C170.5,249,163.3,247.9,154.2,247.8z"/>
				
					<linearGradient id="SVGID_37_" gradientUnits="userSpaceOnUse" x1="890.7252" y1="-98.9353" x2="890.7252" y2="-159.3173" gradientTransform="matrix(0.9925 0 0 1 -879.462 379.5752)">
					<stop  offset="0.2228" style="stop-color:#000000"/>
					<stop  offset="0.2921" style="stop-color:#0D0D0D"/>
					<stop  offset="0.4207" style="stop-color:#303030"/>
					<stop  offset="0.5946" style="stop-color:#686868"/>
					<stop  offset="0.8043" style="stop-color:#B4B4B4"/>
					<stop  offset="0.995" style="stop-color:#FFFFFF"/>
				</linearGradient>
				<path class="st34" d="M31.5,262.4c-2.1-0.2-4.3-0.3-6.4-0.3c-0.1-1.2-0.7-2.3-1.8-2.9c-1.7-0.9-3.9-0.3-4.8,1.4
					c-0.4-6-16.9-9.4-19.7-3.8c-0.3-2.2-1.5-4.1-3.6-5.3c-3.4-1.8-7.6-0.6-9.4,2.8c0,0.1-0.1,0.2-0.1,0.3c-1-0.2-2.1-0.4-3.1-0.5
					c0.3-1.9-0.5-4-2.4-5c-2.2-1.2-4.8-0.4-6.2,1.6c-0.7-0.6-1.5-1.1-2.4-1.6c-0.6-0.3-1.2-0.6-1.8-0.8v28c1.8-0.7,3.4-1.7,4.8-3
					c5.7,1.8,12.4,0.9,16.7-2c2.9,0.5,5.9,0.5,8.7,0.1c0.5,0.6,1.2,1.2,2,1.6c3.4,1.8,7.6,0.6,9.4-2.8c0,0,0-0.1,0-0.1
					c4-0.2,7.8-1,10.1-2.3c6.2,0.2,12.8-0.3,15.9-1.5C41.5,265,38.8,263.2,31.5,262.4z"/>
				
					<linearGradient id="SVGID_38_" gradientUnits="userSpaceOnUse" x1="952.6827" y1="-83.959" x2="952.6827" y2="-154.5152" gradientTransform="matrix(0.9925 0 0 1 -879.462 379.5752)">
					<stop  offset="0.2228" style="stop-color:#000000"/>
					<stop  offset="0.2921" style="stop-color:#0D0D0D"/>
					<stop  offset="0.4207" style="stop-color:#303030"/>
					<stop  offset="0.5946" style="stop-color:#686868"/>
					<stop  offset="0.8043" style="stop-color:#B4B4B4"/>
					<stop  offset="0.995" style="stop-color:#FFFFFF"/>
				</linearGradient>
				<path class="st35" d="M156.3,279.4c-1.6-0.2-3.1-0.3-4.2-0.3c-0.2-1-1.4-1.8-3-1.9c-1.6-0.1-2.9,0.5-3.2,1.5
					c-0.6-0.7-1.5-1.1-2.5-1.1c-0.9,0-1.7,0.4-2.4,0.9c-0.7-1-1.9-1.7-3.2-1.8c-0.4-1.3-1.6-2.2-3-2.2c-0.5,0-0.9,0.1-1.3,0.3
					c-1-1.8-2.9-3-5.1-3c-1.5,0-2.8,0.6-3.9,1.5c-1.4-1.1-3.1-1.7-5-1.7c-1.2,0-2.3,0.3-3.4,0.7c-0.4-2.9-2.8-5.2-5.8-5.2
					c-0.4,0-0.8,0-1.2,0.1c0,0,0-0.1,0-0.1c0-3.3-2.6-5.9-5.9-5.9c-0.4,0-0.9,0.1-1.3,0.1c-1.6-6-7-10.4-13.4-10.4
					c-3,0-5.8,1-8.1,2.6c-0.5-5.2-4.9-9.2-10.2-9.2c-3,0-5.7,1.3-7.5,3.3c-0.8-9.4-8.7-16.8-18.2-16.8c-4.4,0-8.4,1.6-11.6,4.2
					c-4.3-6.1-11.4-10.1-19.4-10.1c-11.5,0-21.1,8.2-23.4,19.2c-1.6-0.5-3.4-0.7-5.1-0.7c-6.2,0-11.6,3.1-15,7.7v41c0,0,0.1,0,0.1,0
					c5,0,9.2-3.3,10.6-7.9c1.6,4.2,5.7,7.3,10.4,7.3c4.3,0,7.9-2.4,9.8-5.9c3.3,5.4,9.1,9,15.9,9c5.2,0,9.9-2.1,13.3-5.6
					c2.1,3.4,5.8,5.6,10,5.6c3.5,0,6.7-1.6,8.8-4c3.5,3.1,8.1,5,13.2,5c6.1,0,11.5-2.7,15.2-7c2.3,1.8,5.2,3,8.3,3
					c4.4,0,8.3-2.2,10.7-5.5c1.9,1.9,4.4,3,7.2,3c3.6,0,6.8-1.9,8.7-4.8c1.4,2.5,4.1,4.2,7.2,4.2c2.4,0,4.6-1,6.1-2.7
					c1,0.8,2.2,1.2,3.6,1.2c2.1,0,4-1.2,5-2.9c0.8,0.9,2,1.5,3.3,1.5c1.5,0,2.8-0.7,3.6-1.9c0.6,0.6,1.4,0.9,2.4,0.9
					c1,0,2-0.5,2.6-1.2c0.5,0.4,1.1,0.7,1.8,0.7c0.9,0,1.6-0.4,2.1-1c0.7,0.4,2,0.7,3.4,0.6c1.6-0.1,2.9-0.5,3.5-1
					c3,0.3,5.4,0,5.5-0.7C162.5,281.1,159.7,279.9,156.3,279.4z"/>
				
					<linearGradient id="SVGID_39_" gradientUnits="userSpaceOnUse" x1="1084.8546" y1="-91.3738" x2="1084.8546" y2="-151.644" gradientTransform="matrix(0.9925 0 0 1 -879.462 379.5752)">
					<stop  offset="0.2228" style="stop-color:#000000"/>
					<stop  offset="0.2921" style="stop-color:#0D0D0D"/>
					<stop  offset="0.4207" style="stop-color:#303030"/>
					<stop  offset="0.5946" style="stop-color:#686868"/>
					<stop  offset="0.8043" style="stop-color:#B4B4B4"/>
					<stop  offset="0.995" style="stop-color:#FFFFFF"/>
				</linearGradient>
				<path class="st36" d="M316.6,270c-2.1-0.2-4.3-0.3-6.4-0.3c-0.1-1.2-0.7-2.3-1.8-2.9c-1.7-0.9-3.9-0.3-4.8,1.4
					c-0.4-6-16.9-9.4-19.7-3.8c-0.3-2.1-1.5-4.1-3.6-5.2c-3.4-1.8-7.6-0.6-9.4,2.8c0,0.1-0.1,0.2-0.1,0.3c-1-0.2-2.1-0.4-3.1-0.5
					c0.3-1.9-0.5-4-2.4-5c-2.2-1.2-4.8-0.4-6.1,1.6c-0.7-0.6-1.5-1.1-2.3-1.6c-2.1-1.1-4.4-1.7-6.6-1.8c-1.2-3.3-3.5-6.1-6.8-7.9
					c-5.8-3.1-12.7-2-17.2,2.3c0-2.8-1.5-5.6-4.2-7c-2.6-1.4-5.6-1.2-7.9,0.2c-0.6-3.8-2.9-7.3-6.6-9.3c-4.8-2.6-10.4-1.8-14.3,1.5
					c-1.1-2.2-2.8-4.1-5.2-5.4c-6-3.2-13.4-1-16.7,5c-0.1,0.3-0.2,0.5-0.4,0.8c-1.1-1-2.3-1.9-3.6-2.7c-8.2-4.5-18.4-1.4-22.8,6.9
					c-0.8,1.5-1.4,3.1-1.7,4.7c-4.5-0.1-8.9,2.3-11.2,6.6c-0.6,1.2-1.1,2.5-1.3,3.8c-2.7-0.6-5.4,0.2-7.4,2.1
					c-0.5-0.4-1.1-0.8-1.7-1.1c-5-2.7-11.2-1-14.1,3.9c-0.2-0.1-0.3-0.2-0.5-0.3c-1.9-1-4.2-0.3-5.2,1.6c-0.4,0.8-0.5,1.7-0.4,2.6
					c-0.5,0.1-1,0.3-1.5,0.5c-0.3-0.7-0.9-1.4-1.7-1.8c-1.9-1-4.2-0.3-5.2,1.6c-0.4,0.8-0.5,1.6-0.4,2.4c-0.6,0.1-1.3,0.4-1.9,0.6
					c-1.6-0.3-3.4,0.4-4.2,1.9c-0.1,0.2-0.1,0.3-0.2,0.5c-0.5-0.1-1-0.2-1.5-0.2c-1.9,0-3.5,0.7-4.4,1.8c-0.1,0-0.3,0-0.4,0
					c-5.3,0-9.6,0.8-9.6,1.9c0,1,4.3,1.9,9.6,1.9c0.1,0,0.3,0,0.4,0c0.9,1.1,2.5,1.8,4.4,1.8c1.1,0,2-0.2,2.9-0.6
					c0.7,1.2,1.7,2.3,3.1,2.9c2.1,1,4.4,1,6.5,0.2c0.6,0.5,1.2,1,1.9,1.4c2.8,1.5,6,1.4,8.6-0.1c0.7,0.7,1.4,1.3,2.3,1.8
					c4.1,2.2,9.1,1,11.8-2.8c0.7,2.1,2.1,3.9,4.2,5c4.2,2.3,9.5,0.8,11.9-3.4c1.4,2,3.3,3.7,5.6,4.9c7.2,3.9,16,2,21-4.1
					c1,1.7,2.4,3.1,4.2,4.1c5.2,2.9,11.8,0.9,14.6-4.4c0-0.1,0.1-0.2,0.1-0.2c0.7,2.2,2.2,4.1,4.3,5.2c4.4,2.4,10,0.7,12.4-3.7
					c0.2-0.3,0.3-0.6,0.4-0.9c1.3,2.1,3.2,3.8,5.5,5.1c7.1,3.9,15.8,1.5,20.1-5.3c0.9,1.4,2.1,2.6,3.7,3.5c4.1,2.2,9.1,1.3,12.1-2
					c0.4,0.2,0.7,0.5,1.1,0.7c5.7,3.1,12.6,2,17.1-2.2c5.7,1.8,12.3,0.9,16.6-2c2.9,0.5,5.9,0.5,8.7,0.1c0.5,0.6,1.2,1.2,2,1.6
					c3.4,1.8,7.6,0.6,9.4-2.8c0,0,0-0.1,0-0.1c4-0.2,7.8-1,10.1-2.3c6.2,0.2,12.7-0.3,15.9-1.5C326.5,272.6,323.8,270.8,316.6,270z"
					/>
			</g>
			<g>
				
					<linearGradient id="SVGID_40_" gradientUnits="userSpaceOnUse" x1="181.9612" y1="-113.4482" x2="181.9612" y2="-199.6177" gradientTransform="matrix(-0.9925 0 0 1 684.471 379.5752)">
					<stop  offset="0.2228" style="stop-color:#000000"/>
					<stop  offset="0.2921" style="stop-color:#0D0D0D"/>
					<stop  offset="0.4207" style="stop-color:#303030"/>
					<stop  offset="0.5946" style="stop-color:#686868"/>
					<stop  offset="0.8043" style="stop-color:#B4B4B4"/>
					<stop  offset="0.995" style="stop-color:#FFFFFF"/>
				</linearGradient>
				<path class="st37" d="M474,243.7c0.4-0.6,1.1-1,1.9-1c0.2,0,0.4,0,0.6,0.1c0.4-0.5,1.1-0.8,1.7-0.8c0.7,0,1.3,0.3,1.8,0.8
					c0,0,0,0,0.1,0c0.3-1,1.2-1.8,2.3-1.8c0.8,0,1.5,0.4,1.9,1c0.4-0.3,0.8-0.7,1.2-1c0-0.1,0-0.2,0-0.3c0-1.9,1.4-3.4,3.1-3.4
					c0.9,0,1.8,0.5,2.3,1.2c0.8-0.2,1.5-0.4,2.3-0.5c0.2-1.1,1-1.9,2-1.9c0.6,0,1.2,0.3,1.6,0.8c0.8-2.3,2.8-3.9,5.1-3.9
					c1.4,0,2.7,0.6,3.7,1.6c0.4-0.2,0.9-0.3,1.3-0.3c0.2,0,0.3,0,0.5,0.1c0.6-2.6,2.7-4.6,5.3-4.6c0.5,0,1,0.1,1.5,0.2
					c0.1-0.1,0.3-0.1,0.4-0.2c1.3-1.8,3.7-3.3,6.6-3.8c2.7-0.5,5.3,0,7.1,1.1c1.4-3.6,4.6-6.2,8.5-6.2c0.5,0,0.9,0,1.3,0.1v32.3
					c-0.3,0-0.5-0.1-0.8-0.2c-1.2,4.7-25.2,4.6-27.2,0.2c-2.9,0.7-4.7,0-5.7-0.8c-0.5,0.3-1,0.5-1.7,0.5c-1,0-1.9-0.5-2.5-1.2
					c-1.4,0.3-2.5,0.2-3.3-0.1c-1,1.2-2.4,2-4,2c-2.1,0-3.8-1.3-4.7-3.1c-0.5,0.4-1.2,0.6-1.9,0.6c-0.7,0-1.4-0.2-1.9-0.7
					c-0.4,0.7-1.1,1.1-1.9,1.1c-0.8,0-1.6-0.5-2-1.2c-0.4,0.3-0.8,0.4-1.3,0.4c-0.7,0-1.4-0.4-1.9-1c-0.1,0-0.3,0-0.4-0.1
					c-0.2,0.1-0.5,0.1-0.7,0.1c-0.6,0-1.1-0.2-1.5-0.6c-2.8-0.7-4.7-1.8-4.7-3.1C469.7,245.4,471.4,244.4,474,243.7z"/>
				
					<linearGradient id="SVGID_41_" gradientUnits="userSpaceOnUse" x1="-252.5298" y1="267.9374" x2="-252.5298" y2="196.0901" gradientTransform="matrix(-0.9925 0 0 1 130.1891 0)">
					<stop  offset="0.2228" style="stop-color:#000000"/>
					<stop  offset="0.2921" style="stop-color:#0D0D0D"/>
					<stop  offset="0.4207" style="stop-color:#303030"/>
					<stop  offset="0.5946" style="stop-color:#686868"/>
					<stop  offset="0.8043" style="stop-color:#B4B4B4"/>
					<stop  offset="0.995" style="stop-color:#FFFFFF"/>
				</linearGradient>
				<path class="st38" d="M260,243.5c0-1.7,5.9-3.1,13.4-3.2c0,0,0-0.1,0-0.1c0-3.1,2.3-5.5,5.1-5.5c1.1,0,2.2,0.4,3,1.1
					c0,0,0,0,0-0.1c1.1-6.1,6.1-10.7,12-10.7c1,0,2,0.1,2.9,0.4c1.2-2.8,3.8-4.8,6.8-4.8c2.2,0,4.2,1.1,5.6,2.7c1.5-2.4,4.1-4,7-4
					c0.4,0,0.8,0,1.2,0.1c-0.3-1.1-0.4-2.3-0.4-3.5c0-7.4,5.5-13.4,12.2-13.4c3.5,0,6.7,1.7,8.9,4.3c1.6-4.1,5.3-7,9.7-7
					c3.7,0,7,2.1,8.9,5.3c1.3-2.2,3.5-3.7,6.1-3.7c0.7,0,1.4,0.1,2,0.3c1.6-3.3,4.8-5.6,8.5-5.6c3.6,0,6.7,2.1,8.4,5.3
					c0.1,0,0.3,0,0.4,0c2.6,0,4.9,1.6,6.2,3.9c2.2-2.3,5.2-3.7,8.5-3.7c3.6,0,6.9,1.7,9.2,4.5c3.2-2.5,7.1-4,11.3-4
					c5.8,0,11,2.8,14.5,7.2c1.4-0.7,2.9-1.1,4.6-1.1c6.2,0,11.2,5.5,11.2,12.3c0,0.3,0,0.5,0,0.8c0.6-0.2,1.2-0.3,1.8-0.3
					c2.8,0,5.2,1.7,6.4,4.2c1.5-0.8,3.1-1.3,4.9-1.3c4.6,0,8.6,3.2,10.1,7.7c0.3,0,0.6-0.1,0.9-0.1c3.3,0,5.9,2.7,6.3,6.2
					c0.1,0,0.2,0,0.3,0c2,0,3.7,1.5,4.1,3.5c0.5,0,1-0.1,1.5-0.1c4,0,7.4,1.2,8.5,2.7c0.3,0,0.6,0,1,0c4.8,0,8.8,1.6,8.8,3.7
					c0,2-3.9,3.7-8.8,3.7c-0.6,0-1.2,0-1.8-0.1c-1.4,1.2-4.4,2-7.8,2c-0.3,0-0.7,0-1,0c-0.4,2-2,3.5-3.9,3.5c-0.4,0-0.9-0.1-1.3-0.2
					c-1.4,2.1-3.6,3.4-6.1,3.4c-1.3,0-2.5-0.3-3.5-0.9c-1.1,1.2-2.7,1.9-4.4,1.9c-1.7,0-3.3-0.8-4.4-2c-2,2.7-5,4.4-8.4,4.4
					c-2.8,0-5.3-1.2-7.3-3.1c-0.9,2.1-2.8,3.6-5.1,3.6c-2,0-3.8-1.2-4.8-2.9c-1.6,1.1-3.5,1.7-5.6,1.7c-2.5,0-4.8-0.9-6.6-2.5
					c-1,1.2-2.5,2-4.2,2c-1.6,0-3.1-0.8-4.1-1.9c-1.6,2.6-4.3,4.4-7.4,4.4c-2.4,0-4.6-1.1-6.2-2.9c-2.9,2.5-7.2,4.1-12,4.1
					c-5.9,0-11-2.4-13.8-6c-1.7,3-4.8,5.1-8.3,5.1c-1.2,0-2.3-0.2-3.3-0.7c-1.3,2.3-3.6,3.8-6.2,3.8c-2.6,0-4.9-1.5-6.2-3.8
					c-2.9,2.3-6.5,3.7-10.3,3.7c-6,0-11.3-3.3-14.5-8.4c-1.9,2.2-4.6,3.6-7.6,3.6c-3.1,0-5.9-1.5-7.9-3.9c-0.7,0.3-1.4,0.4-2.2,0.4
					c-0.9,0-1.8-0.2-2.5-0.6c-2.1,0.7-4.5,1.1-7.1,1.1c-7.3,0-13.4-3.1-14.3-7.1c-0.1,0-0.2,0-0.4,0c-1.7,0-3.2-0.9-4.1-2.4
					c-0.7,0.4-1.5,0.6-2.4,0.6c-2.5,0-4.6-2-5-4.6C264.7,246.3,260,245,260,243.5z"/>
				
					<linearGradient id="SVGID_42_" gradientUnits="userSpaceOnUse" x1="207.6495" y1="-166.4151" x2="207.6495" y2="-226.7975" gradientTransform="matrix(-0.9925 0 0 1 684.471 379.5752)">
					<stop  offset="0.2228" style="stop-color:#000000"/>
					<stop  offset="0.2921" style="stop-color:#0D0D0D"/>
					<stop  offset="0.4207" style="stop-color:#303030"/>
					<stop  offset="0.5946" style="stop-color:#686868"/>
					<stop  offset="0.8043" style="stop-color:#B4B4B4"/>
					<stop  offset="0.995" style="stop-color:#FFFFFF"/>
				</linearGradient>
				<path class="st39" d="M426.5,194.9c2.1-0.2,4.3-0.3,6.4-0.3c0.1-1.2,0.7-2.3,1.8-2.9c1.7-0.9,3.9-0.3,4.8,1.4
					c0.4-6,16.9-9.4,19.7-3.8c0.3-2.2,1.5-4.1,3.6-5.3c3.4-1.8,7.6-0.6,9.4,2.8c0,0.1,0.1,0.2,0.1,0.3c1-0.2,2.1-0.4,3.1-0.5
					c-0.3-1.9,0.5-4,2.4-5c2.2-1.2,4.8-0.4,6.2,1.6c0.7-0.6,1.5-1.1,2.4-1.6c2.1-1.1,4.4-1.7,6.6-1.8c1.2-3.3,3.6-6.2,6.9-7.9
					c5.8-3.1,12.7-2,17.2,2.3c0-2.9,1.5-5.6,4.2-7.1c2.6-1.4,5.6-1.2,7.9,0.2c0.6-3.8,2.9-7.4,6.6-9.4c0.7-0.4,1.5-0.7,2.2-0.9V211
					c-0.2,0.1-0.3,0.2-0.5,0.3c-7.1,3.9-15.8,1.5-20.1-5.3c-0.9,1.4-2.1,2.6-3.7,3.5c-4.1,2.2-9.1,1.3-12.1-2
					c-0.4,0.2-0.7,0.5-1.1,0.7c-5.7,3.1-12.6,2-17.1-2.2c-5.7,1.8-12.4,0.9-16.7-2c-2.9,0.5-5.9,0.5-8.7,0.1c-0.5,0.6-1.2,1.2-2,1.6
					c-3.4,1.8-7.6,0.6-9.4-2.8c0,0,0-0.1,0-0.1c-4-0.2-7.8-1-10.1-2.3c-6.2,0.2-12.8-0.3-15.9-1.5
					C416.6,197.5,419.3,195.7,426.5,194.9z"/>
				
					<linearGradient id="SVGID_43_" gradientUnits="userSpaceOnUse" x1="282.9547" y1="-113.6229" x2="282.9547" y2="-163.5878" gradientTransform="matrix(-0.9925 0 0 1 684.471 379.5752)">
					<stop  offset="0.2228" style="stop-color:#000000"/>
					<stop  offset="0.2921" style="stop-color:#0D0D0D"/>
					<stop  offset="0.4207" style="stop-color:#303030"/>
					<stop  offset="0.5946" style="stop-color:#686868"/>
					<stop  offset="0.8043" style="stop-color:#B4B4B4"/>
					<stop  offset="0.995" style="stop-color:#FFFFFF"/>
				</linearGradient>
				<path class="st40" d="M304.7,250.9c1.7-0.2,3.5-0.3,5.3-0.3c0.1-1,0.6-1.9,1.5-2.4c1.4-0.8,3.2-0.2,4,1.2
					c0.3-4.9,14-7.8,16.3-3.2c0.2-1.8,1.3-3.4,3-4.3c2.8-1.5,6.3-0.5,7.8,2.4c0,0.1,0.1,0.2,0.1,0.2c0.9-0.2,1.7-0.3,2.6-0.4
					c-0.3-1.6,0.5-3.3,2-4.1c1.8-1,4-0.4,5.1,1.4c0.6-0.5,1.2-0.9,1.9-1.3c1.7-0.9,3.6-1.4,5.5-1.5c1-2.7,2.9-5.1,5.7-6.6
					c4.8-2.6,10.5-1.7,14.3,1.9c0-2.4,1.2-4.6,3.4-5.8c2.1-1.2,4.6-1,6.5,0.2c0.5-3.2,2.4-6.1,5.4-7.7c3.9-2.1,8.6-1.5,11.9,1.2
					c0.9-1.8,2.4-3.4,4.3-4.5c5-2.7,11.1-0.8,13.8,4.2c0.1,0.2,0.2,0.4,0.3,0.6c0.9-0.8,1.9-1.6,3-2.2c6.8-3.7,15.3-1.1,18.9,5.7
					c0.7,1.2,1.1,2.5,1.4,3.9c3.8-0.1,7.4,1.9,9.3,5.5c0.5,1,0.9,2.1,1.1,3.1c2.2-0.5,4.5,0.2,6.1,1.8c0.4-0.4,0.9-0.7,1.4-0.9
					c4.1-2.2,9.3-0.8,11.7,3.2c0.1-0.1,0.3-0.2,0.4-0.3c1.6-0.8,3.5-0.3,4.3,1.3c0.4,0.7,0.4,1.4,0.3,2.1c0.4,0.1,0.8,0.2,1.2,0.4
					c0.3-0.6,0.7-1.1,1.4-1.5c1.6-0.8,3.5-0.3,4.3,1.3c0.3,0.6,0.4,1.3,0.3,2c0.5,0.1,1.1,0.3,1.5,0.5c1.4-0.3,2.8,0.3,3.5,1.6
					c0.1,0.1,0.1,0.3,0.2,0.4c0.4-0.1,0.8-0.1,1.3-0.1c1.6,0,2.9,0.6,3.6,1.5c0.1,0,0.2,0,0.3,0c4.4,0,7.9,0.7,7.9,1.5
					c0,0.8-3.5,1.5-7.9,1.5c-0.1,0-0.2,0-0.3,0c-0.7,0.9-2.1,1.5-3.6,1.5c-0.9,0-1.7-0.2-2.4-0.5c-0.6,1-1.4,1.9-2.6,2.4
					c-1.7,0.8-3.7,0.8-5.4,0.2c-0.5,0.4-1,0.8-1.6,1.2c-2.3,1.3-5,1.2-7.2,0c-0.5,0.6-1.2,1.1-1.9,1.5c-3.4,1.9-7.6,0.8-9.8-2.3
					c-0.6,1.7-1.8,3.2-3.5,4.1c-3.5,1.9-7.9,0.6-9.8-2.8c-1.2,1.6-2.7,3.1-4.6,4.1c-6,3.3-13.2,1.7-17.4-3.4c-0.8,1.4-2,2.6-3.5,3.4
					c-4.3,2.4-9.8,0.7-12.1-3.6c0-0.1-0.1-0.1-0.1-0.2c-0.6,1.8-1.8,3.4-3.6,4.3c-3.7,2-8.3,0.6-10.3-3.1c-0.1-0.3-0.3-0.5-0.4-0.8
					c-1.1,1.7-2.6,3.2-4.5,4.2c-5.9,3.2-13.1,1.2-16.6-4.4c-0.7,1.2-1.8,2.2-3.1,2.9c-3.4,1.9-7.5,1.1-10-1.7
					c-0.3,0.2-0.6,0.4-0.9,0.6c-4.8,2.6-10.4,1.7-14.2-1.8c-4.7,1.5-10.2,0.7-13.8-1.7c-2.4,0.4-4.9,0.4-7.2,0.1
					c-0.4,0.5-1,1-1.6,1.3c-2.8,1.5-6.3,0.5-7.8-2.4c0,0,0-0.1,0-0.1c-3.3-0.2-6.4-0.8-8.4-1.9c-5.1,0.2-10.6-0.3-13.2-1.2
					C296.5,253,298.8,251.5,304.7,250.9z"/>
				
					<linearGradient id="SVGID_44_" gradientUnits="userSpaceOnUse" x1="167.1203" y1="-157.4083" x2="167.1203" y2="-221.8403" gradientTransform="matrix(-0.9925 0 0 1 684.471 379.5752)">
					<stop  offset="0.2228" style="stop-color:#000000"/>
					<stop  offset="0.2921" style="stop-color:#0D0D0D"/>
					<stop  offset="0.4207" style="stop-color:#303030"/>
					<stop  offset="0.5946" style="stop-color:#686868"/>
					<stop  offset="0.8043" style="stop-color:#B4B4B4"/>
					<stop  offset="0.995" style="stop-color:#FFFFFF"/>
				</linearGradient>
				<path class="st41" d="M504.7,207.3c1.5-0.2,2.8-0.3,3.8-0.2c0.2-0.9,1.3-1.7,2.7-1.8c1.4-0.1,2.7,0.5,3,1.4c0.6-0.6,1.4-1,2.3-1
					c0.8,0,1.6,0.3,2.2,0.9c0.7-0.9,1.7-1.6,2.9-1.7c0.4-1.1,1.5-2,2.7-2c0.4,0,0.9,0.1,1.2,0.3c0.9-1.6,2.7-2.8,4.7-2.8
					c1.4,0,2.6,0.5,3.5,1.3c1.2-0.9,2.6-1.5,4.2-1.5v15.4c-2.1-0.1-3.9-1-5.2-2.5c-0.9,0.7-2,1.1-3.2,1.1c-2,0-3.7-1.1-4.6-2.6
					c-0.7,0.8-1.8,1.4-3,1.4c-1.4,0-2.6-0.7-3.3-1.7c-0.6,0.5-1.3,0.9-2.2,0.9c-1,0-1.8-0.4-2.4-1.1c-0.4,0.4-1,0.6-1.7,0.6
					c-0.8,0-1.5-0.4-2-0.9c-0.7,0.4-1.8,0.6-3.1,0.6c-1.4,0-2.7-0.4-3.2-0.9c-2.7,0.3-4.9,0-5-0.7
					C499.1,208.9,501.5,207.8,504.7,207.3z"/>
				
					<linearGradient id="SVGID_45_" gradientUnits="userSpaceOnUse" x1="252.3313" y1="-154.2566" x2="252.3313" y2="-217.172" gradientTransform="matrix(-0.9925 0 0 1 684.471 379.5752)">
					<stop  offset="0.2228" style="stop-color:#000000"/>
					<stop  offset="0.2921" style="stop-color:#0D0D0D"/>
					<stop  offset="0.4207" style="stop-color:#303030"/>
					<stop  offset="0.5946" style="stop-color:#686868"/>
					<stop  offset="0.8043" style="stop-color:#B4B4B4"/>
					<stop  offset="0.995" style="stop-color:#FFFFFF"/>
				</linearGradient>
				<path class="st42" d="M335.4,210.8c1.4-0.2,2.7-0.3,3.8-0.2c0.2-0.9,1.3-1.6,2.6-1.7c1.4-0.1,2.6,0.5,2.9,1.4
					c0.6-0.6,1.4-1,2.3-1c0.8,0,1.6,0.3,2.1,0.8c0.7-0.9,1.7-1.5,2.9-1.6c0.4-1.1,1.4-1.9,2.7-1.9c0.4,0,0.8,0.1,1.2,0.3
					c0.9-1.6,2.6-2.7,4.6-2.7c1.3,0,2.5,0.5,3.5,1.3c1.2-1,2.8-1.5,4.5-1.5c1.1,0,2.1,0.2,3,0.6c0.3-2.6,2.5-4.6,5.2-4.6
					c0.4,0,0.8,0,1.1,0.1c0,0,0-0.1,0-0.1c0-2.9,2.3-5.3,5.2-5.3c0.4,0,0.8,0,1.1,0.1c1.4-5.3,6.2-9.2,12-9.2c2.7,0,5.2,0.9,7.2,2.4
					c0.5-4.6,4.4-8.2,9.1-8.2c2.7,0,5,1.2,6.7,3c0.7-8.4,7.7-14.9,16.2-14.9c3.9,0,7.5,1.4,10.3,3.7c3.9-5.4,10.2-9,17.3-9
					c10.3,0,18.8,7.3,20.8,17.1c1.5-0.4,3-0.7,4.6-0.7c8.5,0,15.5,6.4,16.5,14.7c1-0.3,2.1-0.5,3.2-0.5c3.6,0,6.7,2,8.4,4.9
					c1-0.3,2.1-0.5,3.2-0.5c4,0,7.4,2,9.5,5.1c0.8-0.5,1.7-0.8,2.7-0.8c2.2,0,4.1,1.5,4.6,3.5c0.4-0.2,0.9-0.3,1.4-0.3
					c0.1,0,0.2,0,0.3,0v9.9c-0.2-0.2-0.4-0.3-0.6-0.5c-0.9,1.1-2.3,1.9-3.8,1.9c-1.7,0-3.2-0.9-4-2.2c-1.9,3.7-5.7,6.2-10.1,6.2
					c-3.5,0-6.7-1.6-8.8-4.2c-1.5,3.6-5,6.2-9.2,6.2c-4.5,0-8.2-3-9.5-7c-1.4,3.8-5,6.5-9.3,6.5c-3.8,0-7.1-2.1-8.8-5.3
					c-2.9,4.8-8.2,8.1-14.2,8.1c-4.6,0-8.8-1.9-11.8-5c-1.9,3-5.1,5-8.9,5c-3.1,0-5.9-1.4-7.9-3.6c-3.2,2.8-7.3,4.4-11.8,4.4
					c-5.4,0-10.3-2.4-13.6-6.3c-2,1.6-4.6,2.6-7.4,2.6c-3.9,0-7.4-1.9-9.6-4.9c-1.6,1.7-3.9,2.7-6.4,2.7c-3.3,0-6.1-1.7-7.7-4.3
					c-1.3,2.2-3.7,3.7-6.4,3.7c-2.2,0-4.1-0.9-5.5-2.4c-0.9,0.7-2,1.1-3.2,1.1c-1.9,0-3.6-1-4.5-2.6c-0.7,0.8-1.8,1.3-2.9,1.3
					c-1.3,0-2.5-0.7-3.2-1.7c-0.6,0.5-1.3,0.8-2.1,0.8c-0.9,0-1.8-0.4-2.3-1.1c-0.4,0.4-1,0.6-1.6,0.6c-0.8,0-1.5-0.4-1.9-0.9
					c-0.7,0.4-1.8,0.6-3,0.5c-1.4,0-2.6-0.4-3.2-0.9c-2.7,0.3-4.8,0-4.9-0.7C329.9,212.3,332.3,211.3,335.4,210.8z"/>
				
					<linearGradient id="SVGID_46_" gradientUnits="userSpaceOnUse" x1="248.6646" y1="-111.9657" x2="248.6646" y2="-187.1492" gradientTransform="matrix(-0.9925 0 0 1 684.471 379.5752)">
					<stop  offset="0.2228" style="stop-color:#000000"/>
					<stop  offset="0.2921" style="stop-color:#0D0D0D"/>
					<stop  offset="0.4207" style="stop-color:#303030"/>
					<stop  offset="0.5946" style="stop-color:#686868"/>
					<stop  offset="0.8043" style="stop-color:#B4B4B4"/>
					<stop  offset="0.995" style="stop-color:#FFFFFF"/>
				</linearGradient>
				<path class="st43" d="M353.6,247.8c0.3-2.2,2.2-3.9,4.5-3.9c1.1,0,2.2,0.4,2.9,1.1c0.8-1.1,2.2-1.9,3.7-1.9
					c0.8,0,1.5,0.2,2.2,0.6c0.4-2,2.2-3.6,4.4-3.6c1.5,0,2.8,0.8,3.7,1.9c1.1-1.1,2.6-1.8,4.3-1.8c0.8,0,1.6,0.2,2.3,0.5
					c0.2-2.4,2.1-4.2,4.5-4.2c1.8,0,3.3,1,4.1,2.6c1-0.8,2.4-1.4,3.8-1.4c1.1,0,2.1,0.3,2.9,0.8c1.5-1.1,3.4-1.8,5.5-1.8
					c1.3,0,2.5,0.3,3.6,0.7c1-4.1,4.6-7.2,9-7.2c1.6,0,3,0.4,4.3,1.1c1.2-1.8,3.2-3,5.4-3c2.8,0,5.2,1.8,6.1,4.3
					c0.5-4.3,4.2-7.6,8.6-7.6c1.4,0,2.8,0.4,4,1c1.8-3.5,5.3-6,9.4-6.3c-0.1-0.4-0.1-0.8-0.1-1.2c0-3,2.4-5.5,5.4-5.5
					c0.7,0,1.3,0.1,1.9,0.4c1.2-4.8,5.5-8.3,10.6-8.3c1.5,0,3,0.3,4.3,0.9c0.1-7.5,6.2-13.5,13.6-13.5c7.2,0,13,5.6,13.6,12.7
					c2-1.8,4.6-3,7.5-3c5.8,0,10.6,4.6,11,10.3c0.8-0.3,1.7-0.5,2.7-0.5c3.5,0,6.5,2.5,7.2,5.8c2.2-1.4,4.8-2.3,7.6-2.3V259
					c-1.6,0.8-3.5,1.2-5.4,1.2c-4.5,0-8.5-2.4-10.8-5.9c-3.7,5.7-10.2,9.5-17.5,9.5c-4.3,0-8.3-1.3-11.7-3.6
					c-1.7,2.1-4.2,3.4-7.1,3.4c-2.6,0-5-1.1-6.6-2.9c-1.7,2.7-4.7,4.6-8.1,4.6c-3,0-5.7-1.4-7.5-3.7c-1.8,3.5-5.4,6-9.6,6
					c-4.5,0-8.3-2.8-10-6.7c-2,2.2-4.8,3.5-8,3.5c-2.2,0-4.3-0.7-6-1.8c-1.2,0.6-2.6,1-4.1,1c-4.2,0-7.7-2.8-8.9-6.7
					c-1.7,2-4.2,3.3-7.1,3.3c-1.5,0-2.8-0.3-4.1-1c-0.8,0.7-1.8,1.1-2.9,1.1c-1.9,0-3.5-1.2-4.1-2.8c-2,0.4-4.1,0.5-6.3,0.5
					c-2.9,0-5.6-0.3-7.9-0.9c-5.1,5.7-12.6,2.2-13.6-1.2c-3.7-0.3-6.9-1-9.2-1.9c-0.7,0.8-1.6,1.2-2.7,1.2c-1.6,0-3-1.1-3.4-2.5
					c-0.2,0-0.4,0-0.6,0c-9.7,0-17.6-1.1-17.6-2.5C337.3,249,344.5,247.9,353.6,247.8z"/>
				
					<linearGradient id="SVGID_47_" gradientUnits="userSpaceOnUse" x1="182.5799" y1="-98.9353" x2="182.5799" y2="-159.3173" gradientTransform="matrix(-0.9925 0 0 1 684.471 379.5752)">
					<stop  offset="0.2228" style="stop-color:#000000"/>
					<stop  offset="0.2921" style="stop-color:#0D0D0D"/>
					<stop  offset="0.4207" style="stop-color:#303030"/>
					<stop  offset="0.5946" style="stop-color:#686868"/>
					<stop  offset="0.8043" style="stop-color:#B4B4B4"/>
					<stop  offset="0.995" style="stop-color:#FFFFFF"/>
				</linearGradient>
				<path class="st44" d="M476.3,262.4c2.1-0.2,4.3-0.3,6.4-0.3c0.1-1.2,0.7-2.3,1.8-2.9c1.7-0.9,3.9-0.3,4.8,1.4
					c0.4-6,16.9-9.4,19.7-3.8c0.3-2.2,1.5-4.1,3.6-5.3c3.4-1.8,7.6-0.6,9.4,2.8c0,0.1,0.1,0.2,0.1,0.3c1-0.2,2.1-0.4,3.1-0.5
					c-0.3-1.9,0.5-4,2.4-5c2.2-1.2,4.8-0.4,6.2,1.6c0.7-0.6,1.5-1.1,2.4-1.6c0.6-0.3,1.2-0.6,1.8-0.8v28c-1.8-0.7-3.4-1.7-4.8-3
					c-5.7,1.8-12.4,0.9-16.7-2c-2.9,0.5-5.9,0.5-8.7,0.1c-0.5,0.6-1.2,1.2-2,1.6c-3.4,1.8-7.6,0.6-9.4-2.8c0,0,0-0.1,0-0.1
					c-4-0.2-7.8-1-10.1-2.3c-6.2,0.2-12.8-0.3-15.9-1.5C466.4,265,469.1,263.2,476.3,262.4z"/>
				
					<linearGradient id="SVGID_48_" gradientUnits="userSpaceOnUse" x1="244.5374" y1="-83.959" x2="244.5374" y2="-154.5152" gradientTransform="matrix(-0.9925 0 0 1 684.471 379.5752)">
					<stop  offset="0.2228" style="stop-color:#000000"/>
					<stop  offset="0.2921" style="stop-color:#0D0D0D"/>
					<stop  offset="0.4207" style="stop-color:#303030"/>
					<stop  offset="0.5946" style="stop-color:#686868"/>
					<stop  offset="0.8043" style="stop-color:#B4B4B4"/>
					<stop  offset="0.995" style="stop-color:#FFFFFF"/>
				</linearGradient>
				<path class="st45" d="M351.6,279.4c1.6-0.2,3.1-0.3,4.2-0.3c0.2-1,1.4-1.8,3-1.9c1.6-0.1,2.9,0.5,3.2,1.5
					c0.6-0.7,1.5-1.1,2.5-1.1c0.9,0,1.7,0.4,2.4,0.9c0.7-1,1.9-1.7,3.2-1.8c0.4-1.3,1.6-2.2,3-2.2c0.5,0,0.9,0.1,1.3,0.3
					c1-1.8,2.9-3,5.1-3c1.5,0,2.8,0.6,3.9,1.5c1.4-1.1,3.1-1.7,5-1.7c1.2,0,2.3,0.3,3.4,0.7c0.4-2.9,2.8-5.2,5.8-5.2
					c0.4,0,0.8,0,1.2,0.1c0,0,0-0.1,0-0.1c0-3.3,2.6-5.9,5.9-5.9c0.4,0,0.9,0.1,1.3,0.1c1.6-6,7-10.4,13.4-10.4c3,0,5.8,1,8.1,2.6
					c0.5-5.2,4.9-9.2,10.2-9.2c3,0,5.7,1.3,7.5,3.3c0.8-9.4,8.7-16.8,18.2-16.8c4.4,0,8.4,1.6,11.6,4.2c4.3-6.1,11.4-10.1,19.4-10.1
					c11.5,0,21.1,8.2,23.4,19.2c1.6-0.5,3.4-0.7,5.1-0.7c6.2,0,11.6,3.1,15,7.7v41c0,0-0.1,0-0.1,0c-5,0-9.2-3.3-10.6-7.9
					c-1.6,4.2-5.7,7.3-10.4,7.3c-4.3,0-7.9-2.4-9.8-5.9c-3.3,5.4-9.1,9-15.9,9c-5.2,0-9.9-2.1-13.3-5.6c-2.1,3.4-5.8,5.6-10,5.6
					c-3.5,0-6.7-1.6-8.8-4c-3.5,3.1-8.1,5-13.2,5c-6.1,0-11.5-2.7-15.2-7c-2.3,1.8-5.2,3-8.3,3c-4.4,0-8.3-2.2-10.7-5.5
					c-1.9,1.9-4.4,3-7.2,3c-3.6,0-6.8-1.9-8.7-4.8c-1.4,2.5-4.1,4.2-7.2,4.2c-2.4,0-4.6-1-6.1-2.7c-1,0.8-2.2,1.2-3.6,1.2
					c-2.1,0-4-1.2-5-2.9c-0.8,0.9-2,1.5-3.3,1.5c-1.5,0-2.8-0.7-3.6-1.9c-0.6,0.6-1.4,0.9-2.4,0.9c-1.1,0-2-0.5-2.6-1.2
					c-0.5,0.4-1.1,0.7-1.8,0.7c-0.9,0-1.6-0.4-2.1-1c-0.7,0.4-2,0.7-3.4,0.6c-1.6-0.1-2.9-0.5-3.5-1c-3,0.3-5.4,0-5.5-0.7
					C345.4,281.1,348.1,279.9,351.6,279.4z"/>
				
					<linearGradient id="SVGID_49_" gradientUnits="userSpaceOnUse" x1="376.7093" y1="-91.3738" x2="376.7093" y2="-151.644" gradientTransform="matrix(-0.9925 0 0 1 684.471 379.5752)">
					<stop  offset="0.2228" style="stop-color:#000000"/>
					<stop  offset="0.2921" style="stop-color:#0D0D0D"/>
					<stop  offset="0.4207" style="stop-color:#303030"/>
					<stop  offset="0.5946" style="stop-color:#686868"/>
					<stop  offset="0.8043" style="stop-color:#B4B4B4"/>
					<stop  offset="0.995" style="stop-color:#FFFFFF"/>
				</linearGradient>
				<path class="st46" d="M191.3,270c2.1-0.2,4.3-0.3,6.4-0.3c0.1-1.2,0.7-2.3,1.8-2.9c1.7-0.9,3.9-0.3,4.8,1.4
					c0.4-6,16.9-9.4,19.7-3.8c0.3-2.1,1.5-4.1,3.6-5.2c3.4-1.8,7.6-0.6,9.4,2.8c0,0.1,0.1,0.2,0.1,0.3c1-0.2,2.1-0.4,3.1-0.5
					c-0.3-1.9,0.5-4,2.4-5c2.2-1.2,4.8-0.4,6.1,1.6c0.7-0.6,1.5-1.1,2.3-1.6c2.1-1.1,4.4-1.7,6.6-1.8c1.2-3.3,3.5-6.1,6.8-7.9
					c5.8-3.1,12.7-2,17.2,2.3c0-2.8,1.5-5.6,4.2-7c2.6-1.4,5.6-1.2,7.9,0.2c0.6-3.8,2.9-7.3,6.6-9.3c4.8-2.6,10.4-1.8,14.3,1.5
					c1.1-2.2,2.8-4.1,5.2-5.4c6-3.2,13.4-1,16.7,5c0.1,0.3,0.2,0.5,0.4,0.8c1.1-1,2.3-1.9,3.6-2.7c8.2-4.5,18.4-1.4,22.8,6.9
					c0.8,1.5,1.4,3.1,1.7,4.7c4.5-0.1,8.9,2.3,11.2,6.6c0.6,1.2,1.1,2.5,1.3,3.8c2.7-0.6,5.4,0.2,7.4,2.1c0.5-0.4,1.1-0.8,1.7-1.1
					c5-2.7,11.2-1,14.1,3.9c0.2-0.1,0.3-0.2,0.5-0.3c1.9-1,4.2-0.3,5.2,1.6c0.4,0.8,0.5,1.7,0.4,2.6c0.5,0.1,1,0.3,1.5,0.5
					c0.3-0.7,0.9-1.4,1.7-1.8c1.9-1,4.2-0.3,5.2,1.6c0.4,0.8,0.5,1.6,0.4,2.4c0.6,0.1,1.3,0.4,1.9,0.6c1.6-0.3,3.4,0.4,4.2,1.9
					c0.1,0.2,0.1,0.3,0.2,0.5c0.5-0.1,1-0.2,1.5-0.2c1.9,0,3.5,0.7,4.4,1.8c0.1,0,0.3,0,0.4,0c5.3,0,9.6,0.8,9.6,1.9
					c0,1-4.3,1.9-9.6,1.9c-0.1,0-0.3,0-0.4,0c-0.9,1.1-2.5,1.8-4.4,1.8c-1.1,0-2-0.2-2.9-0.6c-0.7,1.2-1.7,2.3-3.1,2.9
					c-2.1,1-4.4,1-6.5,0.2c-0.6,0.5-1.2,1-1.9,1.4c-2.8,1.5-6,1.4-8.6-0.1c-0.7,0.7-1.4,1.3-2.3,1.8c-4.1,2.2-9.1,1-11.8-2.8
					c-0.7,2.1-2.1,3.9-4.2,5c-4.2,2.3-9.5,0.8-11.9-3.4c-1.4,2-3.3,3.7-5.6,4.9c-7.2,3.9-16,2-21-4.1c-1,1.7-2.4,3.1-4.2,4.1
					c-5.2,2.9-11.8,0.9-14.6-4.4c0-0.1-0.1-0.2-0.1-0.2c-0.7,2.2-2.2,4.1-4.3,5.2c-4.4,2.4-10,0.7-12.4-3.7
					c-0.2-0.3-0.3-0.6-0.4-0.9c-1.3,2.1-3.2,3.8-5.5,5.1c-7.1,3.9-15.8,1.5-20.1-5.3c-0.9,1.4-2.1,2.6-3.7,3.5
					c-4.1,2.2-9.1,1.3-12.1-2c-0.4,0.2-0.7,0.5-1.1,0.7c-5.7,3.1-12.6,2-17.1-2.2c-5.7,1.8-12.3,0.9-16.6-2
					c-2.9,0.5-5.9,0.5-8.7,0.1c-0.5,0.6-1.2,1.2-2,1.6c-3.4,1.8-7.6,0.6-9.4-2.8c0,0,0-0.1,0-0.1c-4-0.2-7.8-1-10.1-2.3
					c-6.2,0.2-12.7-0.3-15.9-1.5C181.4,272.6,184.1,270.8,191.3,270z"/>
			</g>
		</g>
	</g>
</g>
</svg>
